{"accessors":[{"bufferView":0,"componentType":5121,"count":108,"max":[59],"min":[0],"type":"SCALAR"},{"bufferView":1,"componentType":5126,"count":60,"max":[0.9510564804077148,0.08482689410448074,0.8090170621871948],"min":[-0.9510565400123596,-2.068712590485677e-15,-1.0],"type":"VEC3"},{"bufferView":2,"componentType":5126,"count":60,"max":[0.9676823616027832,1.0,0.8860105276107788],"min":[-0.9676823616027832,-1.0,-0.9999979138374329],"type":"VEC3"},{"bufferView":3,"componentType":5126,"count":60,"max":[0.0,1.0],"min":[0.0,1.0],"type":"VEC2"},{"bufferView":4,"componentType":5123,"count":7638,"max":[2623],"min":[0],"type":"SCALAR"},{"bufferView":5,"componentType":5126,"count":2624,"max":[12.344100952148438,0.5208467245101929,2.3169479370117188],"min":[3.4104676246643066,-0.6257785558700562,-4.262653827667236],"type":"VEC3"},{"bufferView":6,"componentType":5126,"count":2624,"max":[1.0,1.0,1.0],"min":[-1.0,-1.0,-1.0],"type":"VEC3"},{"bufferView":7,"componentType":5126,"count":2624,"max":[1.0,1.0,-0.0,1.0],"min":[0.0,-1.0,-1.0,-1.0],"type":"VEC4"},{"bufferView":8,"componentType":5126,"count":2624,"max":[0.875,1.0],"min":[0.0,0.0],"type":"VEC2"},{"bufferView":9,"componentType":5126,"count":2624,"max":[1.0,1.0,1.0,1.0],"min":[1.0,1.0,1.0,1.0],"type":"VEC4"},{"bufferView":10,"componentType":5126,"count":2624,"max":[1.0,1.0,1.0,1.0],"min":[1.0,1.0,1.0,1.0],"type":"VEC4"},{"bufferView":11,"componentType":5126,"count":2624,"max":[0.17788841802289643,0.17788841802289643,0.17788841802289643,1.0],"min":[0.17788841802289643,0.17788841802289643,0.17788841802289643,1.0],"type":"VEC4"},{"bufferView":12,"componentType":5125,"count":174000,"max":[79197],"min":[0],"type":"SCALAR"},{"bufferView":13,"componentType":5126,"count":79198,"max":[12.344101905822754,0.46553555130958557,2.316948652267456],"min":[3.4104676246643066,-0.2279268354177475,-4.262653827667236],"type":"VEC3"},{"bufferView":14,"componentType":5126,"count":79198,"max":[1.0,1.0,1.0],"min":[-1.0,-1.0,-1.0],"type":"VEC3"},{"bufferView":15,"componentType":5126,"count":79198,"max":[1.0,0.0,-0.0,-1.0],"min":[1.0,0.0,-0.0,-1.0],"type":"VEC4"},{"bufferView":16,"componentType":5126,"count":79198,"max":[0.0,1.0],"min":[0.0,1.0],"type":"VEC2"},{"bufferView":17,"componentType":5126,"count":79198,"max":[1.0,1.0,1.0,1.0],"min":[1.0,1.0,1.0,1.0],"type":"VEC4"},{"bufferView":18,"componentType":5126,"count":79198,"max":[1.0,1.0,1.0,1.0],"min":[1.0,1.0,1.0,1.0],"type":"VEC4"},{"bufferView":19,"componentType":5126,"count":79198,"max":[0.17788841802289643,0.17788841802289643,0.17788841802289643,1.0],"min":[0.17788841802289643,0.17788841802289643,0.17788841802289643,1.0],"type":"VEC4"},{"bufferView":20,"componentType":5123,"count":9546,"max":[1693],"min":[0],"type":"SCALAR"},{"bufferView":21,"componentType":5126,"count":1694,"max":[9.062481880187988,0.5246906280517578,-0.41923844814300537],"min":[9.057458877563477,0.49437415599823,-0.424261212348938],"type":"VEC3"},{"bufferView":22,"componentType":5126,"count":1694,"max":[0.9999998807907104,0.9968075752258301,0.9999998807907104],"min":[-0.9999999403953552,-0.9982845187187195,-0.9999997615814209],"type":"VEC3"},{"bufferView":23,"componentType":5126,"count":1694,"max":[1.0,0.0,-0.0,-1.0],"min":[1.0,0.0,-0.0,-1.0],"type":"VEC4"},{"bufferView":24,"componentType":5126,"count":1694,"max":[0.0,1.0],"min":[0.0,1.0],"type":"VEC2"},{"bufferView":25,"componentType":5126,"count":1694,"max":[1.0,1.0,1.0,1.0],"min":[1.0,1.0,1.0,1.0],"type":"VEC4"},{"bufferView":26,"componentType":5126,"count":1694,"max":[1.0,1.0,1.0,1.0],"min":[1.0,1.0,1.0,1.0],"type":"VEC4"},{"bufferView":27,"componentType":5126,"count":1694,"max":[0.17788841802289643,0.17788841802289643,0.17788841802289643,1.0],"min":[0.17788841802289643,0.17788841802289643,0.17788841802289643,1.0],"type":"VEC4"}],"asset":{"generator":"Soft8Soft Verge3D for Blender add-on","version":"2.0"},"bufferViews":[{"buffer":0,"byteLength":108,"byteOffset":0,"target":34963},{"buffer":0,"byteLength":720,"byteOffset":108,"target":34962},{"buffer":0,"byteLength":720,"byteOffset":828,"target":34962},{"buffer":0,"byteLength":480,"byteOffset":1548,"target":34962},{"buffer":0,"byteLength":15276,"byteOffset":2028,"target":34963},{"buffer":0,"byteLength":31488,"byteOffset":17304,"target":34962},{"buffer":0,"byteLength":31488,"byteOffset":48792,"target":34962},{"buffer":0,"byteLength":41984,"byteOffset":80280,"target":34962},{"buffer":0,"byteLength":20992,"byteOffset":122264,"target":34962},{"buffer":0,"byteLength":41984,"byteOffset":143256,"target":34962},{"buffer":0,"byteLength":41984,"byteOffset":185240,"target":34962},{"buffer":0,"byteLength":41984,"byteOffset":227224,"target":34962},{"buffer":0,"byteLength":696000,"byteOffset":269208,"target":34963},{"buffer":0,"byteLength":950376,"byteOffset":965208,"target":34962},{"buffer":0,"byteLength":950376,"byteOffset":1915584,"target":34962},{"buffer":0,"byteLength":1267168,"byteOffset":2865960,"target":34962},{"buffer":0,"byteLength":633584,"byteOffset":4133128,"target":34962},{"buffer":0,"byteLength":1267168,"byteOffset":4766712,"target":34962},{"buffer":0,"byteLength":1267168,"byteOffset":6033880,"target":34962},{"buffer":0,"byteLength":1267168,"byteOffset":7301048,"target":34962},{"buffer":0,"byteLength":19092,"byteOffset":8568216,"target":34963},{"buffer":0,"byteLength":20328,"byteOffset":8587308,"target":34962},{"buffer":0,"byteLength":20328,"byteOffset":8607636,"target":34962},{"buffer":0,"byteLength":27104,"byteOffset":8627964,"target":34962},{"buffer":0,"byteLength":13552,"byteOffset":8655068,"target":34962},{"buffer":0,"byteLength":27104,"byteOffset":8668620,"target":34962},{"buffer":0,"byteLength":27104,"byteOffset":8695724,"target":34962},{"buffer":0,"byteLength":27104,"byteOffset":8722828,"target":34962}],"buffers":[{"byteLength":8749932,"uri":"map.bin"}],"cameras":[{"extensions":{"S8S_v3d_camera_data":{"controls":"ORBIT","enablePan":true,"moveSpeed":1,"orbitMaxDistance":10000,"orbitMaxPolarAngle":3.141592653589793,"orbitMinDistance":0,"orbitMinPolarAngle":0,"orbitTarget":[-12.003741264343262,-69.3245849609375,46.970340728759766],"rotateSpeed":1,"viewportFitInitialAspect":1,"viewportFitType":"VERTICAL"}},"name":"__DEFAULT__","perspective":{"aspectRatio":1,"yfov":0.7853981633974483,"zfar":1000.0,"znear":0.009999999776482582},"type":"perspective"}],"extensionsUsed":["S8S_v3d_texture_data","S8S_v3d_material_data","S8S_v3d_camera_data","S8S_v3d_mesh_data","S8S_v3d_node_data","S8S_v3d_scene_data"],"images":[{"uri":"AO-DING.jpg"},{"uri":"Tex-woven.jpg"},{"uri":"HDRI.hdr"}],"materials":[{"extensions":{"S8S_v3d_material_data":{"nodeGraph":{"edges":[{"fromNode":1,"fromOutput":0,"toInput":0,"toNode":0}],"nodes":[{"inputs":[[0,0,0,0],[0,0,0,0],[0.0,0.0,0.0]],"is_active_output":true,"name":"Material Output","outputs":[],"type":"OUTPUT_MATERIAL_BL"},{"inputs":[[1.0,0.0,0.0011984406737610698,1.0],1.0],"is_active_output":false,"name":"自发光(发射)","outputs":[[0,0,0,0]],"type":"EMISSION_BL"}]}}},"name":"color-red"},{"extensions":{"S8S_v3d_material_data":{"nodeGraph":{"edges":[{"fromNode":0,"fromOutput":0,"toInput":0,"toNode":1},{"fromNode":2,"fromOutput":0,"toInput":0,"toNode":0},{"fromNode":3,"fromOutput":0,"toInput":4,"toNode":0},{"fromNode":4,"fromOutput":0,"toInput":7,"toNode":0}],"nodes":[{"inputs":[[0.800000011920929,0.800000011920929,0.800000011920929,1.0],0.0,[1.0,0.20000000298023224,0.10000000149011612],[0.800000011920929,0.800000011920929,0.800000011920929,1.0],1.0,0.3545454740524292,0.0,0.209090918302536,0.0,0.0,0.0,0.5,0.0,0.029999999329447746,1.4500000476837158,0.0,0.0,[0.0,0.0,0.0,1.0],1.0,1.0,[0.0,0.0,0.0],[0.0,0.0,0.0],[0.0,0.0,0.0]],"is_active_output":false,"name":"原理化BSDF","outputs":[[0,0,0,0]],"type":"BSDF_PRINCIPLED_BL"},{"inputs":[[0,0,0,0],[0,0,0,0],[0.0,0.0,0.0]],"is_active_output":true,"name":"Material Output","outputs":[],"type":"OUTPUT_MATERIAL_BL"},{"colorLayer":"01","inputs":[],"is_active_output":false,"name":"Vertex Color","outputs":[[0.0,0.0,0.0,0.0],0.0],"type":"VERTEX_COLOR_BL"},{"colorLayer":"02","inputs":[],"is_active_output":false,"name":"Vertex Color.001","outputs":[[0.0,0.0,0.0,0.0],0.0],"type":"VERTEX_COLOR_BL"},{"colorLayer":"03","inputs":[],"is_active_output":false,"name":"Vertex Color.002","outputs":[[0.0,0.0,0.0,0.0],0.0],"type":"VERTEX_COLOR_BL"}]}}},"name":"color-金属"},{"extensions":{"S8S_v3d_material_data":{"nodeGraph":{"edges":[{"fromNode":5,"fromOutput":0,"toInput":4,"toNode":9},{"fromNode":1,"fromOutput":0,"toInput":0,"toNode":5},{"fromNode":2,"fromOutput":2,"toInput":0,"toNode":1},{"fromNode":3,"fromOutput":0,"toInput":0,"toNode":0},{"fromNode":4,"fromOutput":0,"toInput":0,"toNode":3},{"fromNode":6,"fromOutput":0,"toInput":2,"toNode":3},{"fromNode":7,"fromOutput":0,"toInput":1,"toNode":3},{"fromNode":9,"fromOutput":0,"toInput":0,"toNode":6},{"fromNode":8,"fromOutput":0,"toInput":0,"toNode":7},{"fromNode":5,"fromOutput":0,"toInput":4,"toNode":8}],"nodes":[{"inputs":[[0,0,0,0],[0,0,0,0],[0.0,0.0,0.0]],"is_active_output":true,"name":"Material Output","outputs":[],"type":"OUTPUT_MATERIAL_BL"},{"inputs":[[0.0,0.0,0.0],[0.0,0.0,0.0],[0.0,0.0,0.0],[40.0,40.0,40.0]],"is_active_output":false,"name":"Mapping","outputs":[[0.0,0.0,0.0]],"type":"MAPPING_BL","vectorType":"POINT"},{"inputs":[],"is_active_output":false,"name":"Texture Coordinate","object":-1,"outputs":[[0.0,0.0,0.0],[0.0,0.0,0.0],[0.0,0.0,0.0],[0.0,0.0,0.0],[0.0,0.0,0.0],[0.0,0.0,0.0],[0.0,0.0,0.0]],"type":"TEX_COORD_BL"},{"inputs":[0.5,[0,0,0,0],[0,0,0,0]],"is_active_output":false,"name":"Mix Shader","outputs":[[0,0,0,0]],"type":"MIX_SHADER_BL"},{"inputs":[[0.0,0.0,0.0]],"is_active_output":false,"name":"Image Texture.001","outputs":[[0.0,0.0,0.0,0.0],0.0],"projection":"FLAT","projectionBlend":0.0,"texture":0,"type":"TEX_IMAGE_BL"},{"inputs":[[0.0,0.0,0.0]],"is_active_output":false,"name":"Image Texture","outputs":[[0.0,0.0,0.0,0.0],0.0],"projection":"FLAT","projectionBlend":0.0,"texture":1,"type":"TEX_IMAGE_BL"},{"inputs":[[0.014782698825001717,0.014782698825001717,0.014782698825001717,1.0],0.0,[1.0,0.20000000298023224,0.10000000149011612],[0.800000011920929,0.800000011920929,0.800000011920929,1.0],0.8727272748947144,0.5,0.0,0.5681818127632141,0.0,0.0,0.0,0.5,0.0,0.029999999329447746,1.4500000476837158,0.0,0.0,[0.0,0.0,0.0,1.0],1.0,1.0,[0.0,0.0,0.0],[0.0,0.0,0.0],[0.0,0.0,0.0]],"is_active_output":false,"name":"Principled BSDF","outputs":[[0,0,0,0]],"type":"BSDF_PRINCIPLED_BL"},{"inputs":[[0.0,0.0,0.0,1.0],0.0,[0.0,0.0,0.0]],"is_active_output":false,"name":"Diffuse BSDF","outputs":[[0,0,0,0]],"type":"BSDF_DIFFUSE_BL"},{"inputs":[0.5,1.0,0.10000000149011612,1.0,[0.800000011920929,0.800000011920929,0.800000011920929,1.0]],"is_active_output":false,"name":"Hue Saturation Value.001","outputs":[[0.0,0.0,0.0,0.0]],"type":"HUE_SAT_BL"},{"inputs":[0.5,1.0,2.0,1.0,[0.800000011920929,0.800000011920929,0.800000011920929,1.0]],"is_active_output":false,"name":"Hue Saturation Value","outputs":[[0.0,0.0,0.0,0.0]],"type":"HUE_SAT_BL"}]}}},"name":"color-顶"},{"extensions":{"S8S_v3d_material_data":{"nodeGraph":{"edges":[{"fromNode":4,"fromOutput":0,"toInput":0,"toNode":0},{"fromNode":1,"fromOutput":0,"toInput":4,"toNode":5},{"fromNode":2,"fromOutput":0,"toInput":0,"toNode":1},{"fromNode":3,"fromOutput":0,"toInput":0,"toNode":2},{"fromNode":5,"fromOutput":0,"toInput":0,"toNode":4}],"nodes":[{"inputs":[[0,0,0,0],[0,0,0,0]],"is_active_output":true,"name":"World Output","outputs":[],"type":"OUTPUT_WORLD_BL"},{"inputs":[[0.0,0.0,0.0]],"is_active_output":false,"name":"Environment Texture","outputs":[[0.0,0.0,0.0,0.0]],"projection":"EQUIRECTANGULAR","texture":2,"type":"TEX_ENVIRONMENT_BL"},{"inputs":[[0.0,0.0,0.0],[0.0,0.0,0.0],[0.0,0.0,1.2566369771957397],[1.0,1.0,1.0]],"is_active_output":false,"name":"Mapping","outputs":[[0.0,0.0,0.0]],"type":"MAPPING_BL","vectorType":"POINT"},{"inputs":[],"is_active_output":false,"name":"Texture Coordinate","object":-1,"outputs":[[0.0,0.0,0.0],[0.0,0.0,0.0],[0.0,0.0,0.0],[0.0,0.0,0.0],[0.0,0.0,0.0],[0.0,0.0,0.0],[0.0,0.0,0.0]],"type":"TEX_COORD_BL"},{"inputs":[[0.05087608844041824,0.05087608844041824,0.05087608844041824,1.0],1.0],"is_active_output":false,"name":"Background","outputs":[[0,0,0,0]],"type":"BACKGROUND_BL"},{"inputs":[0.5,0.0,1.0,1.0,[0.800000011920929,0.800000011920929,0.800000011920929,1.0]],"is_active_output":false,"name":"Hue Saturation Value","outputs":[[0.0,0.0,0.0,0.0]],"type":"HUE_SAT_BL"}]}}},"name":"Verge3D_Environment_World"}],"meshes":[{"extensions":{"S8S_v3d_mesh_data":{"colorLayers":{},"uvLayers":{"UVMap":"TEXCOORD_0"}}},"name":"Circle","primitives":[{"attributes":{"NORMAL":2,"POSITION":1,"TEXCOORD_0":3},"indices":0,"material":0,"mode":4}]},{"extensions":{"S8S_v3d_mesh_data":{"colorLayers":{"01":"COLOR_0","02":"COLOR_1","03":"COLOR_2"},"uvLayers":{"UVMap":"TEXCOORD_0"}}},"name":"Mesh.024","primitives":[{"attributes":{"COLOR_0":9,"COLOR_1":10,"COLOR_2":11,"NORMAL":6,"POSITION":5,"TANGENT":7,"TEXCOORD_0":8},"indices":4,"material":1,"mode":4},{"attributes":{"COLOR_0":17,"COLOR_1":18,"COLOR_2":19,"NORMAL":14,"POSITION":13,"TANGENT":15,"TEXCOORD_0":16},"indices":12,"material":0,"mode":4},{"attributes":{"COLOR_0":25,"COLOR_1":26,"COLOR_2":27,"NORMAL":22,"POSITION":21,"TANGENT":23,"TEXCOORD_0":24},"indices":20,"material":2,"mode":4}]}],"nodes":[{"extensions":{"S8S_v3d_node_data":{"frustumCulling":true,"groupNames":["地图"],"hidden":false,"renderOrder":0}},"mesh":1,"name":"广东.017","rotation":[-2.1855694143368964e-08,0.0,-0.0,1.0],"scale":[0.6487375497817993,0.12959587574005127,0.6487375497817993],"translation":[-5.6311421394348145,3.0390725135803223,0.24850177764892578]},{"children":[0],"name":"v3d_Proxy_Node_0_广东.017","translation":[0.11243632435798645,-3.0975446701049805,0.04094123840332031]},{"children":[1],"extensions":{"S8S_v3d_node_data":{"frustumCulling":true,"groupNames":["地图"],"hidden":false,"renderOrder":0}},"name":"Empty.001","rotation":[0.5,0.5,-0.5,0.5],"scale":[0.5862196683883667,0.5862196683883667,0.5862196683883667],"translation":[-26.58848762512207,1.4287796020507812,10.0850830078125]},{"extensions":{"S8S_v3d_node_data":{"frustumCulling":true,"groupNames":["地图"],"hidden":false,"renderOrder":0}},"mesh":0,"name":"Circle","rotation":[0.5,0.5,-0.5,0.5],"scale":[0.9648652076721191,0.9648652076721191,0.9648652076721191],"translation":[-26.64333724975586,2.0316972732543945,16.1320743560791]},{"camera":0,"name":"__DEFAULT_CAMERA__","rotation":[-0.00850450899451971,-0.7070556282997131,-0.008504422381520271,0.7070557475090027],"scale":[0.9999998807907104,0.9999998807907104,0.9999998807907104],"translation":[-218.35328674316406,-64.35992431640625,46.97032928466797]}],"samplers":[{}],"scene":0,"scenes":[{"extensions":{"S8S_v3d_scene_data":{"aaMethod":"AUTO","iblEnvironmentMode":"PMREM","physicallyCorrectLights":true,"pmremMaxTileSize":512,"worldMaterial":3}},"extras":{"animFrameRate":30,"coordSystem":"Z_UP_RIGHT"},"name":"Scene","nodes":[2,3,4]}],"textures":[{"extensions":{"S8S_v3d_texture_data":{"colorSpace":"srgb"}},"name":"AO-DING","sampler":0,"source":0},{"extensions":{"S8S_v3d_texture_data":{"colorSpace":"srgb"}},"name":"Tex-woven.jpg","sampler":0,"source":1},{"extensions":{"S8S_v3d_texture_data":{"colorSpace":"linear"}},"name":"HDRI.hdr","sampler":0,"source":2}]}
