<?xml version="1.0" encoding="utf-8"?>
<!-- Generator: Adobe Illustrator 23.0.6, SVG Export Plug-In . SVG Version: 6.00 Build 0)  -->
<svg version="1.1" id="图层_1" xmlns="http://www.w3.org/2000/svg" xmlns:xlink="http://www.w3.org/1999/xlink" x="0px" y="0px"
	 viewBox="0 0 595.28 841.89" style="enable-background:new 0 0 595.28 841.89;" xml:space="preserve">
<style type="text/css">
	.st0{opacity:0.15;}
	.st1{fill:#FFFFFF;}
</style>
<g class="st0">
	<path class="st1" d="M243.47,299.98c-1.49,5.89-0.64,12.98-11.59,15.23c4.4-5.68,8.07-10.4,11.73-15.13
		c-1.23-3.08,0.83-4.48,3.33-6.17c2.3-1.56,3.69-4.13,5.79-5.97c2.08-1.83,4.54-3.31,7.82-5.65c-3.91,7.36-6.02,14.5-15.29,16.28
		C244.59,298.7,244.07,299.5,243.47,299.98z M304.62,261.99c-2.27,0.09-4.71,0.7-6.79,0.17c-5.98-1.5-10.78,0.51-14.79,3.86
		c-3.65,3.06-6.55,2.09-9.79-0.08c-1.68-1.13-3.38-2.25-4.75-3.15c5.09-8.62,5.56-8.95,17.63-10.37c3-0.35,6.13-0.36,9.1,0.05
		c1.28,0.18,2.3,1.83,3.93,3.24c1.19-0.98,3.29-2.72,5.4-4.46c0.39,0.12,0.78,0.25,1.17,0.37c-0.97,2.13-1.93,4.26-3.25,7.17
		c0.23,0.38,1.13,1.86,2.01,3.34c1.85,1.06,3.7,2.13,5.45,3.13c2.41-1.41,4.65-2.72,7.6-4.45c1.44,6.15-5.72,6.27-6.31,10.19
		C308.8,267.69,306.71,264.84,304.62,261.99z M213.52,477.47c-4.04,0.95-7.68,3.76-10.17,8.01c-1.73,2.96-3.73,5.84-5.94,8.54
		c-3.12,3.81-7.51,4.98-12.64,3.95c-19.67-3.94-32.87-18.4-32.44-36.22c0.16-6.56-1.9-12.16-6.58-16.91
		c-4.81-4.88-9.79-9.47-8.83-16.72c0.1-0.8-0.37-1.74-0.82-2.5c-3.07-5.15-2.75-10.52-0.78-15.75c2.49-6.61,5.44-13.08,8.37-19.55
		c3.83-8.46,13.93-9.77,21.42-13.4c6.93-3.36,20.7,3.38,24.71,10.02c-1.74-0.38-3.26-0.71-4.66-1.02c-1.43,1.95-2.72,3.69-4,5.43
		c1.07,1.62,0.51,3.43,1.19,4.72c1.72,3.27,0.08,7.99,5.18,9.83c5.3,1.91,11.91,2.01,13.89,8.62c0.1-0.13-0.12,0.26-0.44,0.57
		c-7.25,7.1-6.32,10.35,3.81,13.89c1.24,0.43,2.74,1.6,3,2.65c0.99,3.99,3.27,6.76,8.59,7.76c-1.52,0.86-2.4,1.26-3.13,1.8
		c-0.66,0.49-1.17,1.16-1.74,1.74c0.14,0.48,0.28,0.96,0.42,1.44c18.07-3.64,37.16,2.42,54.75-6.04c-2.39,2.22-5.22,3.89-7.17,6.16
		c-3.82,4.46-8.9,8.88-10.24,13.99c-1.86,7.07-5.99,12.41-10.58,17.84c-5.42,6.42-12,11.38-20.58,14.4
		c-3.52,1.24-6.31,4.09-9.89,6.52c-5.73-2.47-7.39-5.85-3.56-11.11C207.21,482.67,210.99,479.89,213.52,477.47z M156.04,250.88
		c-0.42,0.1-0.84,0.21-1.26,0.31c-0.9-1.82-3.12-4.6-2.47-5.31c4.11-4.55,0.92-9.28,1.23-13.87c0.3-4.41-0.73-9.51,5.57-11.76
		c0.24-0.08,0.51-0.51,0.47-0.73c-1.27-7.18,9.11-7.33,10.1-13.19c0.04-0.22,1.68-0.25,2.58-0.32c2.05-0.16,4.11-0.32,6.17-0.43
		c0.92-0.05,2.25-0.32,2.7,0.1c4.39,4.11,10.95,6.92,10.91,13.78c-0.01,2.11-0.28,4.21-0.42,6.32c0.44,0,0.88,0.01,1.31,0.01
		c0-2.95-0.05-5.9,0.02-8.85c0.03-1.36-0.21-2.99,0.51-4.02c4.95-7.09,11.39-7.98,18.78-3.13c2.46,1.61,5.41,2.69,8.26,3.76
		c4.82,1.8,9.82,3.24,14.6,5.11c5.13,2.01,8.94,5.33,11.04,10.07c2.04,4.59,4.16,9.15,6.11,13.77c0.73,1.73,1.09,3.58,1.67,5.56
		c-6.37,0.06-9.26,3.74-11.51,7.83c-2.2,4-1.76,9.28-7.3,11.67c-0.38,0.16-0.59,1.09-0.49,1.61c1.04,5.35-2.61,5.82-7.23,5.54
		c-0.19-0.72-0.58-1.43-0.52-2.11c0.4-4.37-3.81-4.91-6.76-5.59c-1.25-0.29-3.84,2.04-4.94,3.65c-1.99,2.92-3.32,6.19-5.25,9.97
		c-1.26-1.88-2.01-2.98-2.45-3.64c-2.08,2.54-4.25,4.78-5.9,7.3c-2.33,3.56-4.28,7.31-6.52,11.22c-7-14.16-14.09-27.76-26.02-39.24
		c-1.64,2.03-2.59,3.2-4.45,5.49c0.1-6.53,0.09-11.81-7.41-13.49C156.75,249.22,156.4,250.05,156.04,250.88z M352.48,456.64
		c0.31-0.44,0.62-0.89,0.93-1.33c11.34,3.09,22.81,5.41,34.72,3.56c21.11-3.28,42.34-6.1,63.21-10.31
		c11.01-2.22,21.44-6.85,31.96-10.76c1.65-0.61,2.8-3.03,3.4-4.83c0.34-1.02-0.92-2.46-1.48-3.76c-3.25,0.95-6.45,2.03-9.75,2.76
		c-1.19,0.26-3.39,0.04-3.82-0.63c-3.48-5.45-8.05-3.45-12.79-1.94c-2.83,0.9-5.85,1.91-8.78,1.88c-7.35-0.08-14.34,0.56-21.09,3.53
		c-5.54,2.44-11.5,4.13-17.17,6.34c-3.55,1.39-7.23,2.77-10.31,4.8c-5.41,3.58-11.16,4.72-17.57,3.26
		c-4.62-1.05-9.17-2.37-13.66-3.54c1.13-2.52,5.17-4.64,1.21-7.81c10.19-4.73,23.32-6.76,25.4-20.56c-3.2,0.7-5.93,1.31-10.04,2.21
		c7.5-3.83,13.72-6.97,19.9-10.19c2.82-1.47,5.3-3.17,2.18-6.34c8.56-3.04,17.09-6.11,25.66-9.08c1.01-0.35,2.31-0.31,3.41-0.14
		c10.76,1.71,21.53,3.35,32.22,5.36c2.49,0.47,4.66,2.24,6.99,3.41c-0.11,0.17-0.21,0.35-0.32,0.52c-3.45-0.81-6.91-1.62-10.36-2.42
		c8.44,3.04,16.83,5.71,22.74,12.39c4.55,5.14,9.4,10.05,14.14,15.05c3.25,3.43,4.34,11.01,1.88,14.82
		c-2.14,3.32-5.25,5.13-9.79,4.21c-1.57-0.32-3.17-0.49-4.76-0.73c-0.04,0.28-0.08,0.56-0.13,0.84c3.74,0.53,7.47,1.05,11.21,1.58
		c0.04,0.21,0.08,0.42,0.11,0.63c-2.17,0.32-4.33,0.65-6.5,0.97c1.6,0.59,3.25,0.26,4.63,0.67c1.58,0.47,3.55,1.34,4.16,2.52
		c0.43,0.83-0.73,3.05-1.85,3.66c-6.65,3.58-14.06,4.38-21.72,4.19c-8.6-0.21-17.23,0.08-25.81-0.33
		c-9.74-0.46-19.44-1.57-29.17-2.17c-3.95-0.25-8.12-0.57-11.88,0.26c-19.04,4.23-37.97,3.22-56.89-0.35
		C355.33,458.56,353.95,457.4,352.48,456.64z M91.65,298.07c0.25-0.52,0.51-1.04,0.76-1.55c2.67-0.56,5.49-1.89,7.99-1.52
		c6.1,0.9,12.04,2.68,18.08,3.94c6.8,1.41,11.26,4.32,13.79,10.77c3.24,8.26,4.27,17.96,14.12,23.18c0.44,0.23,0.51,1.03,0.75,1.56
		c1.9,4.17,3.79,8.34,5.51,12.12c-0.89,1.17-2.85,2.77-2.51,3.47c2.21,4.52,1.87,10.46,8.69,12.61c3.21,1.01,6.12,2.75,9.2,4.1
		c5.37,2.35,10.77,4.65,16.16,6.98c-0.1,0.52-0.19,1.03-0.29,1.55c-4.75,0-9.5,0.15-14.24-0.04c-4.62-0.18-8.86,0.03-11.68,3.98
		c-0.47,0.66-1.54,1.38-2.33,1.38c-7.11-0.01-10.33,4.57-13.22,9.14c-2.76,4.37-4.85,9.08-7.61,14.35c-2.39-2.8-4.39-5.22-6.49-7.57
		c-4.05-4.52-7.99-9.13-12.28-13.47c-6.59-6.67-13.41-13.17-20.19-19.69c-13.96-13.43-16.16-29.76-14.64-46.99
		c0.14-1.57,0.78-3.1,1.49-5.82c1.18,3.05,1.86,4.81,2.54,6.56c-1.48-12.31-0.16-18.04,6.34-19.9c3.69,10.14,7.37,20.27,10.37,28.53
		C100.51,317.35,99.43,306.82,91.65,298.07z M181.11,332.08c-1.95-1.35-3.4-2.36-5.15-3.57c-1.16,2.07-1.73,4.22-3.24,5.47
		c-1.58,1.3-4.06,1.74-4.94,2.08c1.64,5.19,2.99,9.46,4.44,14.07c-1.7-0.59-2.87-0.99-3.91-1.35c-1.35,1.47-2.52,2.75-3.94,4.3
		c-2.14-2.13-3.52-4.77-5.67-5.41c-7.53-2.27-7.31-8.36-10.14-13.59c1.89,0.35,2.93,0.55,3.97,0.74c-1.61-1.49-3.67-2.15-5.26-3.31
		c-2.45-1.79-5.67-3.57-6.66-5.98c-4.61-11.19-8.76-22.53-12.69-33.93c-2.51-7.29-1.67-14.74,0.44-22.05
		c0.48-1.67,1.54-3.21,2.33-4.81c0.46,0.06,0.92,0.13,1.38,0.19c0.36,1.61,0.96,3.21,1.03,4.83c0.07,1.56-0.4,3.13-0.64,4.7
		c1.03-3.21,1.55-6.55,0.89-9.68c-0.73-3.46,1.35-5.25,3.78-6.95c1.13-0.79,3.02-1.53,4.25-1.24c2.48,0.58,5.91,8.26,5.23,10.59
		c-1.35,4.65-2.61,9.32-3.91,13.99c2.51-4.99,4.58-10.07,5.74-15.3c1.14-5.12,1.36-10.4,2.02-15.84c1.89,0.83,4.38,1.93,6.99,3.07
		c0.47-1.18,0.76-1.94,1.09-2.68c0.03-0.06,0.31-0.03,1.18-0.1c6.97,6.69,0.31,15.01,2.46,21.9c0.55-3.01,1.16-6.37,1.77-9.74
		c0.25,0.02,0.5,0.05,0.76,0.07c0.09,1.82,0.19,3.64,0.26,5.06c1.16-2.8,2.42-5.86,3.98-9.64c1.87,2,3.35,3.19,4.29,4.65
		c6.07,9.47,12.48,18.81,17.82,28.61c2.52,4.61,2.92,10.14,4.35,15.48c-7.1,0.99-8.82,4.39-8.58,9.04c0.05,1.02,0.34,2.17-0.07,3.04
		c-0.66,1.39-1.81,2.59-2.76,3.87c-1.29-1.01-2.94-1.83-3.78-3.08c-1.07-1.6-1.47-3.54-2.4-5.97
		C174.38,320.55,174.58,321.52,181.11,332.08z M376.49,315.15c1.28-1.81,1.72-2.9,2.57-3.57c9.93-7.82,23.82-17.31,41.59-9.22
		c2.95,1.34,6.62,1.97,9.97,1.97c8.52,0.01,13.92,3.23,17.6,10.19c2.97,5.61,7.37,10.64,11.32,15.81
		c3.95,5.18,8.29,10.13,12.18,15.34c5.73,7.69,2.84,14.41-7,16.95c-1.25,0.32-2.44,0.85-3.61,1.36
		c-11.18,4.84-20.44,11.28-25.57,21.92c-3.98,8.27-11.76,12.38-21.77,13.45c-0.56-6.38-0.84-6.64,3.88-10.65
		c8.96-7.61,9.09-17.15,8.45-27.05c-0.24-3.74-0.84-7.67,0.08-11.23c1.69-6.53-1.26-9.14-8.23-12.52c-1.36-0.66-2.97-0.9-4.39-1.31
		c0-3.65,0-6.97,0-10.84c-2.12,0.98-3.37,1.56-4.61,2.13c-1.32-0.91-2.52-1.74-3.83-2.65c-0.81,2.31-1.49,4.26-2.17,6.22
		c-0.51-0.09-1.02-0.19-1.53-0.28c0-5.1,0-10.21,0-14.47c-2.92-0.88-5.32-1.08-6.92-2.18c-3.65-2.53-7.23-3-11.38-1.25
		C381.41,313.98,379.5,314.31,376.49,315.15z M420.99,482.89c-0.8,3.51-0.53,6.41-2.02,7.88c-2.2,2.17-5.11,0.45-8-0.44
		c-6.23-1.92-12.75-3.18-19.26-4.22c-1.8-0.29-4.11,0.89-5.9,1.82c-2.39,1.24-4.52,2.88-6.72,4.4c-10.97,7.6-23.92,8.84-37.37,9.11
		c1.56-1.97,3.58-3.18,5.46-4.55c0.9-0.66,1.54-1.61,2.29-2.43c-1.21-0.53-2.54-1.66-3.59-1.48c-2.85,0.49-5.71,1.3-8.34,2.42
		c-7.73,3.28-15.67,3.83-23.94,2.13c-2.7-0.56-5.56-0.53-8.21-1.19c-1.86-0.46-4.11-1.26-5.13-2.57c-5.43-7-13.04-7.52-21.36-6.24
		c-7.48,1.15-14.95,2.4-23.14,3.73c0.52-3.05,0.81-5.48,1.37-7.85c0.55-2.33,1.36-4.6,1.7-5.72c5.04-0.26,9.74-0.5,14.44-0.73
		c1.38-0.07,3.09-0.62,4.1-0.1c6.49,3.33,6.85,3.36,12.18-1.38c3.2-2.85,2.54-5.75-1.41-7.72c-1.76-0.88-3.12-2.41-4.66-3.64
		c0.31-0.37,0.63-0.75,0.94-1.12c3.21,0.43,6.41,1.12,9.64,1.24c5.4,0.21,4.3-3.32,3.75-6.23c2.08,1.08,3.79,2.37,5.75,2.92
		c9.31,2.59,18.8,3.66,28.59,2.47c2.73-0.33,5.9-0.01,8.42,0.94c7.07,2.66,8.16,2.67,13.67-2.27c2.66,1.62,5.49,3.13,8,4.97
		c1.36,0.99,1.87,3.18,3.3,3.76c4.91,1.97,10.07,3.46,15.13,5.13c-0.12,0.36-0.24,0.72-0.35,1.08c-1.46,0.11-2.91,0.22-4.37,0.33
		c4.93,1.13,9.86,2.25,14.79,2.27c4.95,0.03,9.9-1.03,15.94-1.75c-1.61,0.82-2.25,1.15-2.78,1.42c2.47,0.7,6.25,0.82,6.81,2.09
		C412.7,485.84,415.81,484.78,420.99,482.89z M270.21,256.91c-2.59-3.02-5.28-5.83-7.53-8.91c-0.89-1.22-1.55-3.26-1.04-4.5
		c3-7.16,9.45-10.96,17.2-13.62c0.33,2.19,0.6,3.96,0.87,5.73c0.79-1.48,0.5-3.02,1.05-4.27c0.47-1.08,1.81-2.47,2.93-2.6
		c5.77-0.66,10.91-3.76,17.4-2.44c2.55,0.52,5.6-0.67,7.96,1.65c0.44,0.43,1.59,0.55,2.33,0.42c5.47-0.91,6.77,2.54,7.78,6.02
		c0.73,2.51,0.95,5.14,1.4,7.71c0.2-0.01,0.4-0.03,0.6-0.04c0-1.8,0-3.61,0-6.07c3.57,2.46,6.61,3.6,10.55,1.64
		c4.31-2.15,7.84-0.72,10.09,3.22c0.59,1.03,1.56,1.89,2.16,2.92c3.47,5.87,7.52,11.52,5.87,18.8c-0.26,1.15,2.15,3.91,3.55,4.04
		c4.78,0.45,5.66,2.65,5.05,6.64c-1.69-0.7-3.07-1.28-4.44-1.85c-1,0.78-2.37,2.37-2.9,2.17c-4.3-1.62-4.98,2.17-7.19,3.58
		c-0.92,0.59-1.61,1.47-2.52,2.08c-6.81,4.57-13.72,8.87-22.73,5.15c0-2.01,0-3.86,0-5.66c10.83-1.76,10.83-1.76,10.23-6.58
		c-3.06,0-6.07,0.3-8.97-0.1c-2.1-0.29-4.04-1.5-6.17-2.35c1.19-0.92,3.33-2.12,4.74-3.81c0.84-1.01,1.2-3.16,0.54-4.09
		c-0.6-0.84-3.07-1.26-4.4-0.91c-1.75,0.46-3.19,1.85-4.62,2.75c-1.35-0.79-2.98-1.27-3.66-2.27c-0.81-1.19-1.64-3.55-1-4.14
		c3.91-3.58,0.34-6.12-0.5-10.03c-2.02,2.42-3.26,3.89-4.45,5.32C289.23,248.88,276.26,251.02,270.21,256.91z M266.13,372.44
		c-2.93,1.22-6.23,2.6-9.81,4.1c-0.66-4.29-0.15-7.26,3.28-9.43c2.78-1.76,5.38-3.75,6.72-4.69c1.49-3.89,2.57-6.71,3.64-9.53
		c8.56,2.05,8.56,2.05,15.13-3.31c0.68,0.91,1.36,1.82,2.44,3.26c-0.31-2.03-0.51-3.39-0.81-5.33c2.4,0.16,4.38,0.29,5.89,0.39
		c0.38,3.02,0.68,5.42,0.99,7.82c0.05-3.81,0.18-7.2,4.54-9.48c3.01-1.58,5.79-3.59,8.4-5.67c3.08-2.45,11.75-3.58,13.43-1.18
		c2.89,4.15,5.36,8.55,7.73,12.97c0.62,1.15,0.31,2.73,0.28,4.1c-0.04,1.99-0.21,3.98-0.39,7.18c-1.3,1.96-3.49,5.24-5.56,8.37
		c-8.32-0.32-16.71-0.73-25.12-0.9c-1.47-0.03-3,0.89-4.43,1.51c-2.92,1.29-5.79,2.67-8.87,4.1c-2.8,3.85-5.92,8.16-9.87,13.61
		c-1.15-1.91-2.62-3.22-2.6-4.51C271.23,380.73,270.78,375.92,266.13,372.44z M482.98,431.64c0.21,0.23,0.41,0.46,0.62,0.69
		c-2.38,2.21-4.33,5.16-7.22,6.48c-6.44,2.95-13.12,6.03-20.12,7.39c-20.59,3.98-41.37,7.2-62.1,10.62
		c-13.12,2.17-26.08,1.53-38.68-2.53c-1.95-0.63-3.49-2.26-5.21-3.43c10.75-2.67,20.62-5.05,30.88-1.09
		c6.42,2.48,13.04,1.72,19.31-1.47c5.04-2.56,10.33-4.76,15.58-6.96c4.87-2.04,9.84-3.89,14.77-5.8c2.31-0.89,4.64-1.73,6.96-2.59
		c0.17,0.26,0.35,0.53,0.52,0.79c-0.87,1.22-1.74,2.44-2.37,3.32c3.08-1.52,6.58-4.74,9.59-4.41c6.44,0.7,11.72-1.06,17.35-2.94
		c1.7-0.57,5.21-0.18,5.93,0.85c2.49,3.59,5.25,3.75,9.06,2.14C479.4,432.04,481.26,431.98,482.98,431.64z M343.9,394.7
		c4.66,8.68,9.93,15.97,6.21,25.47c-1.84,4.7-5.07,8.05-10.02,8.47c-4.35,0.37-8.56-1.57-10.96-5.91c-1.14-2.06-4.18-4.18-6.71-4.58
		c-9.98-1.61-20.35-4.34-29.04,3.5c-0.82,0.74-2.53,1.05-3.77,0.96c-1.77-0.13-3.48-0.82-5.35-1.3c1.72-3.32,2.59-8.83,5.72-10.19
		c5.76-2.49,7.76-6.73,10.63-10.83c0.51-0.72,1.07-1.69,1.84-1.93c3.95-1.24,8-2.23,11.98-3.41c1.3-0.39,3.23-0.85,3.6-1.71
		c1.51-3.52,4.52-3.8,8.9-3.75c-0.84,6.02-1.63,11.75-2.43,17.48c5.07-5.35,5.07-5.31,13.05-6.23c0.79-0.09,1.55-0.91,2.17-1.52
		C340.92,398.04,341.99,396.77,343.9,394.7z M347.08,493.98c0.1,0.26,0.2,0.51,0.3,0.77c-1.99,1.38-4,2.74-5.97,4.14
		c-3.48,2.47-6.55,5.72-10.47,7.31c-11.94,4.84-24.66,5.93-37.48,3.51c-6.81-1.28-13.73-2.9-19.98-5.53
		c-6.3-2.65-11.83-6.75-17.7-10.21c0.2-0.47,0.39-0.95,0.59-1.42c8.98-1.39,17.91-3.07,26.94-4.06c6.73-0.74,12.52,1.16,16.38,6.78
		c0.91,1.33,3.36,2.11,5.28,2.55c2.83,0.65,5.85,0.6,8.71,1.17c8.64,1.72,16.86,0.93,24.86-2.52
		C341.2,495.31,344.22,494.79,347.08,493.98z M365.23,255.56c5.39-3.41,9.06-2.78,13.09,1.8c3.58,4.07,7.58,7.86,11.51,11.67
		c2.41,2.34,3.55,4.83,0.65,7.22c-5.29,4.35-10.76,8.53-16.37,12.54c-1.26,0.9-3.42,0.81-6.42,1.43c1.22-1.76,1.49-2.11,1.71-2.49
		c1.11-1.9,3.1-3.8,3.09-5.7c-0.01-3.12-2.99-3.67-6.24-4.2c-3.4-0.56-6.68-1.94-6.05-6.47c0.43-3.07-1.43-5.53-5.7-5.82
		c-1.2-0.08-3.14-1.41-3.29-2.35c-0.9-5.44-1.37-10.93-2.04-16.9c7.35-4.17,12.06-1.49,12.61,9.02c0.59-1.41,0.94-2.23,1.28-3.05
		c0.34-0.04,0.68-0.09,1.02-0.13C364.45,253.19,364.8,254.25,365.23,255.56z M485.19,462.1c0.05,0.51,0.11,1.01,0.16,1.52
		c-1.66,0.42-3.31,0.87-4.98,1.27c-22.19,5.26-45.01,5.15-67.67,6.07c-10.26,0.41-20.6-0.93-30.91-1.11
		c-10.76-0.19-20.04-3.3-28.18-10.21c1,0.22,1.59,0.37,2.19,0.49c20.07,3.71,40.12,5.05,60.17-0.22c1.68-0.44,3.57-0.73,5.28-0.53
		c7.41,0.87,14.79,2,22.19,2.92c2.58,0.32,5.21,0.46,7.81,0.43C462.56,462.56,473.88,462.32,485.19,462.1z M366.3,369.09
		c2.14-0.62,5.59-2.79,8.2-2.16c6,1.44,11.59,4.22,17.31,6.54c0.43,0.18,0.65,1.01,0.74,1.57c0.53,3.16,1.62,6.37,1.38,9.49
		c-1.05,14.17-10.86,23.14-23.5,30.27c-0.1,0.06-0.45-0.24-0.63-0.34c2.86-2.83,5.73-5.66,8.59-8.49
		c-4.35,2.53-7.26,6.53-12.54,8.33c3.01-7.95,7.81-15.17,7.92-22.44C373.88,384.65,369.24,377.4,366.3,369.09z M297.06,318.37
		c0.46,0.05,0.92,0.1,1.38,0.15c1.38-1.5,2.83-2.95,4.13-4.51c0.83-1,1.15-2.52,2.2-3.16c3.24-1.96,6.91-3.38,10.05-5.45
		c3.3-2.16,6.05-2.51,9.12,0.18c1.74,1.53,3.73,2.84,5.69,4.16c3.09,2.07,6.33,3.12,9.65,0.53c1.28,1.25,2.4,2.31,3.46,3.39
		c2.11,2.15,1.81,8.94-0.65,11.95c-2.66,3.24-6.55,2.1-9.16,0.75c-5.96-3.09-10.55-1.16-15.37,1.79c-1.34,0.82-3.39,1.79-4.65,1.42
		c-4.81-1.4-8.91-1.19-12.02,2.91C299.52,327.49,298.29,322.93,297.06,318.37z M285.78,391.44c2.25-0.94,2.32-6.71,8.04-3.63
		c3.32,1.79,6.71,3.48,9.96,5.38c0.93,0.54,1.47,1.62,2.49,2.82c-9.1,0.87-7.96,9.66-14.31,12.57c-0.8-0.67-1.82-1.37-2.63-2.22
		c-7.43-7.83-13.12-8.74-22.32-2.89c-4.49,2.86-9.12,3.53-14.37,2.94c-4.06-0.46-8.07-0.91-9.12-5.18
		c-1.13-4.59,2.05-9.93,6.72-11.52c2.2-0.75,4.29-0.64,4.66,2.13c0.12,0.9,0.28,1.81,0.53,3.4c0.63-1.86,1-2.97,1.79-5.31
		c1.18,2.6,1.82,4.02,2.61,5.77c0.19-1.95,0.34-3.51,0.54-5.54c6.73,0.43,13.09,0.84,19.3,1.23c0.51-0.54,1.51-1.6,2.5-2.65
		C283.34,389.6,284.49,390.47,285.78,391.44z M238.33,399.56c-12.79-4.11-24.45-9.15-32.14-19.34c-3.22-4.26-2.65-7.27,0.91-10.19
		c3.76-3.08,8.86-3.19,13.04-0.86c5.66,3.15,11.53,6,17.39,8.86c3.33,1.63,6.79,3.03,10.19,4.54c-5.32,0.1-2.84,3.01-2.5,5.26
		c-4.3-0.31-8.32-0.59-12.33-0.88c-0.02,0.18-0.05,0.35-0.07,0.53c4.46,0.71,8.92,1.42,13.99,2.22c-2.01,2.08-3.36,3.48-4.68,4.85
		c-0.72-0.75-1.4-1.45-2.76-2.86C238.98,394.63,238.7,396.72,238.33,399.56z M313.46,372.34c4.01,0.73,7.6,1.04,10.92,2.07
		c4.65,1.45,5.55,6.69,2.06,9.68c-3.25,2.79-5.98,6.26-9.71,8.34c-2.62,1.46-6.99,2.2-9.76,1.29c-4.41-1.44-8.18-4.48-12.15-6.94
		c-3.43-2.12-6.26-2.12-7.56,0.43c-4.1,0.8-7.15,1.39-10.93,2.13c2.94-4.03,5.82-7.97,8.74-11.96c1.56-0.4,3.96-0.34,4.88-1.35
		c3.87-4.26,8.94-3.32,13.93-3.22c4.68,0.09,9.79-0.74,11.39,5.01C314.74,376.22,314.21,374.61,313.46,372.34z M308.67,434.28
		c0.47-4.86-2.94-6.12-6.81-6.61c-5.37-0.68-5.39-0.54-8.48-3.71c7.94-9.63,18.85-6.22,28.79-4.34c3.6,0.68,6.3,5.11,9.41,7.83
		c-0.26,0.14-0.52,0.28-0.78,0.43c2,0.58,4,1.15,6.1,1.76c-0.75,1.25-1.22,2.03-1.69,2.81c3.82-1.53,7.23-3.39,10.92-4.16
		c1.68-0.35,4.24,1.15,5.75,2.42c0.61,0.52-0.1,2.93-0.94,4.04c-4.67,6.11-11.57,8.11-19.93,8.07c0.16-3.46-1.8-4.64-5.45-4.52
		c-1.32,0.04-3.17-0.94-3.96-1.96c-2.71-3.49-5.61-5.23-10.11-2.34C310.93,434.35,309.93,434.17,308.67,434.28z M334.18,460.7
		c-0.08,0.3-0.16,0.6-0.25,0.9c-7.76,0-15.52,0-23.34,0c1.28-1.63,2.17-2.76,3.87-4.92c-4.46,0.4-7.43,0.67-10.69,0.96
		c0.3-1.39,1.09-2.7,0.66-3.47c-2.65-4.78,1.28-5.33,4.69-5.65c9.71-0.91,19.45-2.73,29.18,0.13c1.28,0.38,2.99,0.28,4.27-0.14
		c3.39-1.12,5.67,0.21,6.72,2.71c1.23,2.93,2.13,6.11,2.31,9.22c0.21,3.57-2.74,5.28-6.61,4.02c-3.19-1.04-6.1-2.77-9.24-3.96
		c-2.52-0.95-5.21-1.56-7.82-2.32c-0.1,0.28-0.2,0.57-0.31,0.85C329.81,459.58,332,460.14,334.18,460.7z M238.07,314.93
		c-0.14,1.03-0.09,2.11-0.44,3.07c-2.03,5.51-1.42,10.92,0.68,16.28c1.35,3.43,3.47,6.75,4,10.27c1.6,10.53,4.81,20.44,11.1,29.56
		c0.91,1.33,0.13,3.58,0.13,6.46c-13.98-11.05-21.41-24.06-25.2-38.33C225.71,332.3,228.49,322.43,238.07,314.93z M134.76,408.17
		c-27.03-12.99-48.42-37.87-48.99-54.15c7.23,7.74,14.75,16.56,23.21,24.6c7.13,6.78,15.46,12.55,20.09,21.23
		c0.81,1.51,2.74,2.52,3.77,3.98C133.75,405.12,134.13,406.71,134.76,408.17z M409.06,346.22c0.18,0.04,0.36,0.08,0.53,0.13
		c0.85-1.85,1.44-3.85,2.65-5.5c0.74-1.01,3.05-2.34,3.55-2.04c3.3,1.94,6.79,3.94,9.23,6.64c1.63,1.8-1.69,10.62-3.66,11.85
		c-1.3,0.81-3.41,2.34-4.02,1.99c-3.71-2.13-4.49,0.9-6.1,2.39c-5.33,4.95-10.61,9.94-15.91,14.92c-0.39-0.28-0.77-0.56-1.16-0.84
		c0.03-0.56-0.06-1.14,0.11-1.66c2.2-6.8,4.15-13.69,6.77-20.36c1.75-4.45,2.82-9.53,8.78-12.58
		C409.51,343.27,409.29,344.74,409.06,346.22z M346.36,395.32c5.33-2.47,8.38-6.37,7.94-11.31c-0.78-8.92-2.41-17.78-3.72-26.88
		c4.57,1.03,5.39,3.36,5.27,6.74c-0.11,3.18,0.77,6.39,1.21,9.59c0.18-0.04,0.37-0.08,0.55-0.12c-0.2-3.78-0.4-7.56-0.6-11.34
		c0.51-0.05,1.01-0.1,1.52-0.15c9.33,8.47,7.43,19.36,6.29,29.52c-0.73,6.54-6.33,11.41-13.23,15.28
		C349.7,402.56,348.1,399.09,346.36,395.32z M264.87,361.93c-8.88-16.37-8.3-36.16,0.41-44.43c0,3.09,0,5.86,0,8.64
		c0.38-0.03,0.76-0.06,1.14-0.09c-0.32-5.63-0.64-11.25-0.97-16.88c0.49,0.01,0.98,0.03,1.46,0.04c0.55,2.3,1.1,4.6,1.64,6.9
		c0.17-0.02,0.35-0.04,0.52-0.07c-0.41-4.29-0.83-8.58-1.29-13.36c2.35,0.87,4.08,1.52,6.04,2.25c0,7.77,0.17,15.34-0.1,22.9
		c-0.09,2.41-1.22,4.82-2.06,7.18c-1.13,3.15-2.86,6.16-3.6,9.37C266.72,350.18,265.9,356.07,264.87,361.93z M281.47,437.17
		c2.49,2.23,4.71,3.53,5.83,5.37c2.72,4.47,5.05,9.14,7.28,13.82c0.9,1.88,1.12,4.02,1.66,6.04c-2.03-0.04-4.06-0.07-6.09-0.13
		c-0.82-0.02-1.71,0.07-2.44-0.18c-4.46-1.57-10.32-2.15-13.04-5.05c-6.79-7.24-5.99-16.08,0.24-24.18
		c6.13,2.02,4.03,6.77,3.99,12.09C279.93,441.85,280.5,440.12,281.47,437.17z M327.23,385.54c7.31-5.45,15.29-11.39,22.85-17.03
		c0.78,4.52,1.91,9.94,2.6,15.41c0.65,5.1-3.26,9.15-9.04,10.07c-4.3,0.69-8.85,0.86-11.6,4.79c-0.65,0.92-2.31,1.28-3.51,1.9
		c-0.24-1.29-0.62-2.57-0.71-3.87C327.58,393.3,327.45,389.79,327.23,385.54z M343.25,302.44c-13.26-5.8-25.82-8.03-39.14,0.32
		c0.65-3.62,0.9-6.4,1.68-9.05c1.45-4.93,6.82-7.94,12.53-7.61c4.18,0.24,8.38,0.07,12.57,0.14c0.77,0.01,1.71,0.13,2.29,0.53
		c4.31,3.01,8.55,6.1,12.76,9.11c0.14-1.17,0.36-3.01,0.62-5.13C349.01,295.67,347.89,299.1,343.25,302.44z M256.32,471.61
		c-2.74,2.05-5.14,0.34-5.53-2.01c-0.65-3.89-1.05-8.18,0.12-11.89c2.73-8.65,10.92-13.44,18.24-18.98
		c-0.34,3.07-1.75,6.12-0.68,8.09c3.07,5.64,1.32,11,0.61,16.58c-0.63,4.99-3.38,7.89-9.9,9.44c-0.59-3.79-1.16-7.45-1.72-11.1
		c-0.11-0.02-0.22-0.04-0.33-0.06C256.88,464.79,256.63,467.89,256.32,471.61z M350.01,503.36c13.1-1.62,24.97-5.42,35-13.4
		c3.54-2.81,7.76-3.25,12.33-1.27c2.12,0.92,4.75,0.83,7.1,1.38c2.98,0.7,5.91,1.57,8.86,2.37c-0.08,0.43-0.16,0.86-0.23,1.29
		C393.01,501.6,372.18,505.73,350.01,503.36z M208.03,360.89c-6.84-5.8-15.35-10.6-16.96-19.26c-1.73-9.29-2.11-18.81-2.53-28.25
		c-0.18-4.08,3.17-5.39,6.83-4c0,6.79,0,13.27,0,19.74c0.31,0,0.63,0,0.94,0c0-2.79,0-5.58,0-8.89c1.04,0.69,1.89,0.96,1.97,1.35
		C201.06,334.74,199.61,348.7,208.03,360.89z M352.81,443.37c1.83-4.11,3.76-7.77,5.05-11.6c0.82-2.45,0.19-5.3,1.13-7.69
		c1.15-2.94,2.91-5.85,5.16-8.2c0.6-0.63,3.97,0.86,6.28,1.43c0.76-0.16,2.13-0.81,3.34-0.62c5.06,0.8,7.98,5.74,5.33,9.69
		C373.07,435.33,364.53,441.41,352.81,443.37z M202.73,344.54c18.02,11.13,35.14,22.7,49.1,37.58c-8.35-3.01-16.48-6.3-24.39-9.95
		c-5.89-2.72-11.02-6.24-11.69-12.89c-0.07-0.74-0.78-1.43-1.54-2.74c-1.18,2.13-2.05,3.73-3.5,6.35
		C207.8,356.21,205.27,350.37,202.73,344.54z M185.51,376.16c9.25,2.02,17.79,4.53,25.16,10.58c7.22,5.92,16.45,9.88,24.99,14.82
		c-0.81,0.16-2.32,0.91-3.48,0.6c-2.14-0.57-4.38-1.44-6.01-2.76c-2.72-2.19-5.15-2.48-8.28-0.77c-3.04,1.67-6.13,1.5-9.03-0.65
		c-8.78-6.5-17.63-12.93-26.4-19.45c-0.56-0.42-0.67-1.32-1.36-2.76c4.55,1.97,8.18,3.55,11.81,5.12c0.1-0.22,0.2-0.44,0.3-0.66
		C190.65,378.88,188.08,377.52,185.51,376.16z M287.55,422.53c4.19,7.93,14.38,4.42,19.8,9.12c-2.09,5.97-8.2,9.14-15.49,8.28
		c-10.92-1.29-19.5-9.81-21.32-21.67C275.98,420.93,280.38,426.11,287.55,422.53z M377.61,335.81c4.31,4.19,1,7.98-0.59,11.99
		c-1.3,3.29-4.06,4.5-7.18,3.66c-4.46-1.2-7.12,0.02-8.71,3.19c-2.15-3.15-4.29-6.28-6.81-9.96c0.34-0.57,1.94-2.06,2.04-3.63
		c0.37-5.83,5.41-7.46,10.05-9.4c4.93-2.06,7.18-0.56,6.92,4.3c-0.01,0.2,0.26,0.41,0.68,1.03c0.2-0.72,0.35-1.26,0.5-1.8
		c0.4,0.24,0.81,0.48,1.21,0.73c-1.01,2.2-2.03,4.41-3.04,6.61c0.21,0.09,0.42,0.18,0.63,0.27
		C374.69,340.56,376.06,338.34,377.61,335.81z M236.36,441.98c5.43-3.79,11.17-7.5,16.52-11.62c3.82-2.94,7.09-6.46,10.66-9.67
		c2.5-2.25,4.52-1.93,5.96,1.03c0.97,2.01,1.79,4.1,3.03,5.96c1.82,2.73,0.85,4.48-1.73,6.27
		C260.36,441.19,248.26,442.11,236.36,441.98z M341.23,358.78c-2.86-0.72-5-1.65-7.17-1.72c-2.87-0.09-3.78-1.23-4.55-3.5
		c-1.2-3.57-2.46-7.3-4.72-10.36c-2.28-3.09-1.13-4.59,1.76-5.76c3.67-1.48,7.53-2.6,10.69-3.67c3.93,4.07,7.46,7.72,11.01,11.41
		C339.06,346.47,345.09,354.8,341.23,358.78z M280.69,416.1c-0.24,0.4-0.47,0.79-0.71,1.19c-3.36,0-6.74-0.19-10.08,0.06
		c-3.23,0.24-9.81-4.66-9.44-7.51c0.11-0.84,0.89-1.83,1.69-2.33c2.54-1.57,5.24-2.94,7.88-4.38c6.76-3.67,13.88-2.1,18.07,4.01
		c0.4,0.59,1.06,1.45,0.84,1.89c-1.76,3.59-3.7,7.1-5.84,11.12C282.01,418.31,281.35,417.2,280.69,416.1z M211.25,408.66
		c-2.84,0-5.19,0.33-7.37-0.07c-4.45-0.81-8.76-2.36-13.23-2.98c-6.36-0.88-4.48-5.96-7.45-9.53c2.35,0.5,3.63,0.77,5.28,1.12
		c-1.97-2.06-3.65-3.82-5.34-5.6c1.05-1.42,2-2.71,3.44-4.67C195.93,392.98,209.33,394.78,211.25,408.66z M278.09,278.93
		c1.61-4.21,2.64-9.07,6.83-12.61c5.67-4.78,12.63-3.44,18.92-1.85c2.07,0.52,4.69,6.35,4.19,6.72c-3.98,2.99-8.33,6.25-13.18,7.46
		C289.86,279.89,284.17,278.93,278.09,278.93z M239.97,424.72c-0.41,0.54-0.73,0.87-0.95,1.25c-0.76,1.31-1.48,2.63-2.21,3.95
		c1.69,0.23,3.47,0.87,5.05,0.6c3.12-0.53,6.14-1.57,9.19-2.4c0.27,0.36,0.54,0.71,0.81,1.07c-4.88,3.25-9.51,6.86-14.72,9.6
		c-2.68,1.41-7.49,2.67-9.38,1.5c-3.29-2.05,1.45-3.42,2.54-5.19c0.08-0.12,0.16-0.24-0.13,0.19c-0.2-1.91,0.07-3.47-0.59-4.61
		c-1.24-2.14-3.39-3.88-4.52-6.05c-3.88-7.44-0.95-11.12,10.25-10.95C237.45,417.18,231.58,423.29,239.97,424.72z M218.07,268.01
		c0.67-0.25,1.33-0.5,2-0.75c1.82,1.87,3.89,3.59,5.4,5.64c1.59,2.16,2.65,4.64,4.22,7.48c-4.04,4.35-9.54,8.91-17.64,9.35
		c0.48,3.26,1.13,5.89,1.18,8.54c0.03,1.93-1.08,3.87-1.08,5.81c0,3.45,0.45,6.89,0.7,10.34c-1.98-1.43-3.66-3.21-3.82-5.09
		c-0.47-5.65,1.95-11.41-0.98-17.01c-0.38-0.73,0.24-1.96,0.59-2.9c1.07-2.89,2.13-5.79,3.39-8.62
		C213.95,276.51,216.04,272.27,218.07,268.01z M210.77,282.15c-3.43,5.68-5.89,10.6-2.78,16.09c0.24,0.42,0.13,1.35-0.23,1.62
		c-5.85,4.57-4.53,10.46-3.81,16.22c0.73,5.83,1.59,11.64,2.39,17.46c-0.53,0.19-1.06,0.39-1.58,0.58
		c-1.16-1.21-2.98-2.28-3.37-3.67c-1.54-5.46-2.73-11.01-3.85-16.56c-0.35-1.74,0.14-3.61-0.13-5.38c-0.33-2.18-1.88-4.46-1.46-6.45
		C197.66,294.05,198.16,285.15,210.77,282.15z M210.14,365.96c-2.43,2.05-4.63,3.3-5.8,5.08c-1.2,1.83-1.4,4.18-2.1,6.51
		c-7.16-4.16-11.73-10.16-14.57-17.27c-0.31-0.76,0.98-2.03,1.72-3.44c-5.5-3.78,1.38-5.53,2.38-8.64
		C198.11,354.33,204.15,360.16,210.14,365.96z M379.25,322.44c-0.24,0.49-0.47,0.98-0.71,1.48c-1.32-1.8-2.65-3.61-3.95-5.38
		c9.56-6.22,14.43-6.34,21.69-0.86c-0.34,1.22-0.68,2.46-1.23,4.43c1.77-2.08,2.95-3.48,4.76-5.61c2.46,9.3-0.55,16.53-5.35,24.53
		c-1.28-3.32-2.04-6.05-3.36-8.54c-1.7-3.21-3.5-6.48-5.97-9.21C384.2,322.26,381.27,322.68,379.25,322.44z M291.23,321.53
		c4.62-10.84,12.93-17.93,23.7-22.96c0.9-0.42,2.23-0.22,3.35-0.16c3.72,0.22,7.44,0.67,11.17,0.72c5.8,0.08,12.09,3.45,14.02,8.07
		c0.5,1.21,0.08,2.72,0.08,4.1c-2.21-1.3-3.03-2.56-3.95-3.76c-0.96-1.26-2.01-2.47-3.01-3.7c-0.35,0.74-0.03,1.19,0.07,1.68
		c0.28,1.39,0.46,2.8,0.69,4.21c-1.81-0.08-3.9,0.32-5.37-0.35c-2.44-1.1-4.59-2.79-6.68-4.42c-4.34-3.39-7.95-4.07-11.41-0.16
		c-3.86,4.36-12.69,3.23-13.58,10.36c-0.03,0.26-0.78,0.66-1.16,0.63c-4-0.28-3.45,2.21-3.45,4.38c0,0.69,0,1.38,0,2.11
		C294.21,322.04,292.96,321.83,291.23,321.53z M369.65,354.97c0.27-0.42,0.83-1.27,1.39-2.13c0.69,0.91,1.37,1.83,1.33,1.78
		c2.01-0.75,4.22-2.43,5.81-2.04c7.21,1.74,12.14,9.63,10.83,16.93c-4.02-1.23-7.91-3.07-11.97-3.47c-3.97-0.39-8.13,0.7-12.65,1.19
		c-0.17-2,0.26-5.31-0.88-8.13c-1.12-2.77-1.38-5.04,1.46-6.27C366.01,352.37,368.34,354.33,369.65,354.97z M315.04,333.17
		c5.75-9.56,14.17-6.61,22.27-4.49c1.31,0.34,2.27,1.74,3.21,2.51c-6.79,2.43-12.86,4.6-19.36,6.92c-2.75-2.71-7.31-1.85-10.95-0.59
		c-3.78,1.3-6.85,4.22-10.23,6.44c-0.01-3.79,0.52-7.3,2.17-10.33C304.79,328.81,310.59,328.65,315.04,333.17z M352.42,344.88
		c-2-1.03-3.47-1.68-4.81-2.49c-6.89-4.17-7.41-6.69-1.66-11.9c3.76-3.4,8.21-6.19,13.26-9.93c5.88,0.34,5.33,5.45,5.12,10.92
		C355.42,332.11,356.2,340.01,352.42,344.88z M309.59,275.45c0.35,0.32,0.71,0.63,1.06,0.95c-1.04,1.7-2.87,3.38-2.96,5.12
		c-0.22,4.27-2.45,6.7-6.65,8.38c-2.49,1-4.85,2.44-6.9,4.05c-4.77,3.74-8.2,4.76-14.36,3.87c2.08-3.11,4.18-6.34,6.39-9.52
		c1.93-2.77,4.04-5.35,8.39-5.1c0.84,0.05,2.35-0.41,2.5-0.88C298.91,276.26,305.14,277.27,309.59,275.45z M348.61,274.95
		c5.26,2.8,6.48,5.06,5.34,10.22c-0.35,1.59-1.22,3.08,1.83,3.68c0.75,0.15,1.54,3.43,1.01,4.89c-2.13,5.86-4.68,11.61-7.29,17.32
		c-0.63,1.37-2.11,2.44-3.48,3.96c-0.83-1.29-1.54-1.9-1.4-2.25c1.72-4.51-1.69-10.02,3.74-13.94c1.24-0.9,1.27-3.59,1.14-5.41
		c-0.19-2.67-1.77-4.53-5.64-4.33c0.19,1.33,0.34,2.37,0.49,3.41c-1.41-1.13-2.45-2.68-2.02-3.76
		C344.15,284.13,346.4,279.68,348.61,274.95z M208.13,314.1c0.35-0.15,0.7-0.29,1.06-0.44c1.47,1.5,3.96,2.86,4.25,4.52
		c1.85,10.37,3.22,20.82,4.74,31.24c-0.42,0.1-0.84,0.2-1.26,0.29c-5.03-5.65-9.68-11.38-9.88-19.22
		c-0.12-4.62-1.21-9.22-1.51-13.85c-0.27-4.1-0.06-8.23-0.06-12.35c0.74,0.01,1.49,0.02,2.23,0.04c0,4.83,0,9.67,0,14.5
		c0.32-0.02,0.63-0.03,0.95-0.05C208.48,317.23,208.31,315.67,208.13,314.1z M254.08,335.57c-5.01-13.64,2.58-25.26,4.59-37.49
		c0.07-0.4,0.44-0.78,0.73-1.13c5.18-6.29,11.47-11.44,20.19-15.72C267.94,298.71,253.05,313.96,254.08,335.57z M368.29,302.11
		c0.39,0.21,1.43,0.89,2.57,1.35c1.15,0.46,2.4,0.71,3.61,1.05c0.15-1.2,0.75-2.54,0.36-3.58c-1.18-3.13-2.74-6.14-4.15-9.19
		c0.43-0.32,0.85-0.65,1.28-0.97c1.41,1.18,3.39,2.13,4.09,3.58c1.21,2.5,1.76,5.28,2.35,7.99c1.3,5.99-1.5,11.26-5.52,15.43
		c-2.51,2.61-2.82,4.05-0.47,6.26c-1.52,0.99-2.78,1.81-4.28,2.78c1.41,1.01,2.5,1.79,3.59,2.58c-0.21,0.33-0.42,0.66-0.63,0.98
		c-1.83-0.77-4.9-1.2-5.29-2.36c-2.19-6.41,0-12.79,1.2-19.14C367.35,306.96,367.72,305.05,368.29,302.11z M238.1,367.08
		c-19.52-14.8-19.52-14.8-20.22-40.57c3.05,4.55,6.06,9.14,8.46,13.98c1.43,2.87,1.53,6.26,2.87,9.18
		C231.79,355.27,234.82,360.72,238.1,367.08z M218.34,416.25c-2.61-4.37-5.42-9.09-8.16-13.7c8.19-3.77,15.06-4.46,19.84,0.55
		c0.43,3.5,0.76,6.16,0.93,7.59c-3.45,2.8-6.25,5.11-9.09,7.38c-1.95,1.56-4.51,0.6-5.38-2
		C217.53,416.16,218.56,416.27,218.34,416.25z M209.13,425.81c-2.84,0.18-6.55,1.45-8.34,0.32c-4.4-2.77-3.84-5.11,0.33-9.39
		c1.88-1.93,3.3-4.2,4.93-6.32c0.46,0.36,0.91,0.72,1.37,1.09c-2.18,0-4.35,0-6.53,0c0-0.37-0.01-0.74-0.01-1.11
		c2.41-0.21,4.81-0.51,7.22-0.6c3.63-0.13,6.55,1.95,6.45,4.64c-0.17,4.83,2.44,6.02,7.79,5.79c-4.24,4.13-12.1,3.61-12.01,10.36
		C204.6,428.75,208.28,426.65,209.13,425.81z M184.84,356.28c-4.32-4.35-14.59-5.91-13.04-15.93c1.25,0.19,2.35,0.36,3.45,0.52
		c0.09-0.17,0.17-0.35,0.26-0.52c-2.12-1.05-4.25-2.11-6.53-3.24c7.93-4.36,13.06-0.49,21.59,9.71
		C188.69,349.93,186.88,352.9,184.84,356.28z M295.69,324.58c-1.4,3.3-2.6,5.43-3.19,7.68c-1.13,4.33-4.6,6.49-9.61,6.43
		c-2.44-0.03-5.06,0.89-7.31,1.88c-2.03,0.9-3.68,2.49-5.77,3.98c0.78-8.74,12.52-19.99,21.9-21.11
		C293.26,323.26,295.01,324.37,295.69,324.58z M254.02,371.29c-8.07-10.33-13.51-32.33-9.11-37.23c1.51,5.76,3.82,10.79,8.69,15.24
		c3.88,3.54,5.67,8.9,8.39,13.45c-0.25,0.09-0.5,0.18-0.75,0.27c-1.59-1.24-3.17-2.47-4.76-3.71c-0.57,0.14-1.15,0.28-1.72,0.42
		C254.52,363.53,254.27,367.33,254.02,371.29z M300.66,450.61c0.66,2.22,1.45,4.87,2.24,7.51c-0.76,0.31-1.53,0.61-2.29,0.92
		c-4.13-5.73-8.27-11.45-12.24-16.97c5.5-1,9.88-1.87,14.3-2.56c3.76-0.59,7.22-0.02,9.44,3.11c1.54,2.17,1.13,3.64-1.97,4.48
		c-3.15,0.85-7.57-0.6-9.01,3.64C300.59,450.59,300.06,450.44,300.66,450.61z M222.23,422.69c3.04,6.11,8.1,11.78,1.39,19.33
		c-1.9,0.24-5.18,0.64-9.19,1.14c1.46-1.76,2.35-2.83,3.22-3.89C207.72,432.11,208.62,428.88,222.23,422.69z M248.98,298.58
		c0.69,0.45,1.37,0.89,2.06,1.34c-3.15,12.13-6.31,24.26-9.46,36.38c-0.73-0.02-1.45-0.05-2.18-0.07
		c-0.29-5.25-1.54-10.63-0.63-15.7c1.17-6.54,3.93-12.87,6.36-19.19C245.57,300.17,247.65,299.49,248.98,298.58z M286.04,303.75
		c0,4.18,1.47,8.47-0.29,10.32c-4.35,4.57-6.8-2.6-10.77-2.13c-0.58-11.35-0.57-11.35,11.91-12.84c0.96-0.12,1.9-0.44,2.87-0.5
		c1.44-0.09,2.89-0.02,4.32-0.02c-0.93,2.38-1.58,4.03-2.22,5.68C289.73,304.07,287.6,303.88,286.04,303.75z M281.34,271.73
		c-3.13,1.65-5.42,3.28-8.03,4.07c-1.7,0.51-4-0.68-5.79-0.27c-5.63,1.3-11.15,3-16.72,4.55c-0.3-0.29-0.61-0.57-0.91-0.86
		c6.17-5.16,12.34-10.32,17.91-14.98C272.6,266.89,276.16,268.86,281.34,271.73z M434.38,391.47c5.22-13.32,15.46-22.61,31.47-27.6
		C452.01,379.87,440.74,389.61,434.38,391.47z M193.66,373.58c-8.27-5.35-15.46-9.84-22.43-14.6c-3.03-2.07-3.42-5.13-2.55-9.05
		c2.24,1.68,3.86,2.89,5.58,4.18c-0.11-1.06-0.19-1.94-0.38-3.74c3.8,2.64,7.57,4.26,9.66,6.92
		C187.21,361.98,189.85,367.3,193.66,373.58z M292.84,306.14c-1.02,4.77-1.84,9.15-2.95,13.48c-0.33,1.29-1.1,2.84-2.24,3.55
		c-3.77,2.35-7.8,4.38-12.21,6.79c0-5.28,0-10.49,0-16.5c3.46,1.77,6.19,3.17,8.92,4.56c0.61-0.75,1.16-1.42,2-2.46
		c0.38,1.26,0.63,2.08,0.88,2.9c0.29-0.02,0.58-0.05,0.87-0.07c0-4.33,0-8.67,0-13.19C289.39,305.44,290.95,305.76,292.84,306.14z
		 M374.75,414.84c5.39-1.69,10.87-3.03,15.98-5.11c5.09-2.06,9.81-4.85,14.56-7.26c1.49,1.63,2.44,2.67,3.85,4.21
		c-6.7,3.32-13.07,6.48-19.45,9.63C384.26,418.99,378.97,420.4,374.75,414.84z M366.28,282.54c1.14,4.45,2.07,8.04,2.85,11.08
		c-4.14,2.37-8.7,4.99-13.27,7.61c-0.36-0.38-0.72-0.76-1.08-1.14c0.83-1.53,1.36-3.29,2.55-4.55c2.17-2.29,1.75-4.29,0.53-6.82
		c-1.29-2.67-1.77-5.64-2.96-9.7C360.35,280.7,364.02,281.84,366.28,282.54z M227.26,334.31c-0.91,0.15-1.82,0.29-2.73,0.44
		c-0.88-2.97-2.34-5.9-2.53-8.91c-0.63-9.52-0.79-19.07-1.13-28.6c-0.14-3.92-0.87-8.05,4.95-9.75c-0.17,1.58-0.05,3.23-0.55,4.73
		c-3.17,9.49-2.22,18.81,0.46,28.27C226.97,324.93,226.79,329.7,227.26,334.31z M257.23,389.47c-6.22-9.9-3.48-10.86,8.61-14.72
		c4.28,2.42,3.28,6.22,3.41,9.81c0.12,3.58-1.39,5.09-5.43,4.93C261.64,389.4,259.46,389.47,257.23,389.47z M387.65,402.19
		c5-3.64,9.65-7.79,15.1-10.79c7.7-4.23,16.6-6.97,20.12-15.6C424.09,384.81,407.17,397.93,387.65,402.19z M331.24,380.67
		c-1.15-1.84-1.96-3.42-3.06-4.82c-1.07-1.37-2.43-2.57-3.73-3.92c1.24-3.11,1.5-7.1,6.65-7.41c4.83-0.3,8.77,2.8,11.19,8.59
		C338.77,375.51,335.17,377.97,331.24,380.67z M293.98,280.62c-2.75,2.07-6.28,4.03-8.76,6.74c-4.56,4.98-8.52,10.4-12.84,15.79
		c-1.97-1.11-3.13-1.76-5.07-2.85c4-4.93,7.99-9.46,11.48-14.27C282.5,280.91,288.59,278.86,293.98,280.62z M397.23,344.2
		c4.61,9.31,1.18,18.71-4.3,28.09c-1.05-1.44-1.49-2.96-1.86-4.48c-0.66-2.66-0.64-5.67-2.09-7.92c-1.77-2.73-0.44-4.09,1.16-6.04
		C392.7,350.73,394.91,347.38,397.23,344.2z M350.76,363.69c-3.54-1.55-5.8-2.53-7.33-3.2c0.18-3.05,0.44-5.56,0.46-8.07
		c0.02-4.39,2.69-6.36,7.44-5.33c4.1,0.88,10.98,10.08,11.16,14.96c0.01,0.15-0.39,0.31-0.6,0.46c-4.35-3.07-8.67-6.12-14-9.88
		C348.97,356.79,349.73,359.73,350.76,363.69z M251.56,255.1c-2.75,6.24-5.34,12.1-7.93,17.96c-1.06-4.8-1.7-9.37-0.91-13.74
		c1.23-6.8,6.14-9.77,13.31-8.86c-1.45,4.35,2.8,8.9,0.21,13.23c-0.49,0.04-0.97,0.07-1.46,0.11
		C253.78,261.1,252.78,258.4,251.56,255.1z M292.48,314.54c0.75-2.22,0.75-4.2,1.86-5.14c5.45-4.66,2.79-8.82-1.02-13.39
		c2.68-1.64,5.33-3.03,7.68-4.76c2.64-1.95,5.08-4.13,7.47-6.33c2.58-2.36,5.02-4.86,8.37-8.13c0,3.44,0,5.29,0,6.91
		c-6.5,1.89-12.2,4.73-12.66,10.96C303.61,302.72,298.93,308.44,292.48,314.54z M283.18,466.15c-2,2-3.53,3.32-4.77,4.82
		c-3.82,4.65-8.77,5.06-12.45,0.86c6.1-3.41,3.41-9.83,6.16-14.4c1.37,0.95,2.64,2.57,4.07,2.69
		C280.99,460.55,283.05,462.87,283.18,466.15z M192.57,375.14c-13.27-5.51-27.35-9.6-39.53-17.83
		C158.38,354.02,175.79,362.14,192.57,375.14z M231.89,312.44c-0.97-11.45,17.96-35.12,32.92-34.74c-0.99,0.63-1.83,1.07-2.55,1.64
		c-8.28,6.56-19.39,10.93-21.68,22.16c-0.08,0.4-0.47,0.76-0.76,1.11C237.1,305.99,234.37,309.37,231.89,312.44z M306.02,436.8
		c2.21-0.58,4.65-0.81,6.57-1.82c3.57-1.88,5.49-0.64,7.69,1.9c1.12,1.3,3.33,1.88,5.11,2.69c1.18,0.53,2.45,0.89,3.69,1.33
		c-0.75,1.18-1.22,3.1-2.29,3.42c-3.28,0.98-6.77,1.42-10.21,1.86c-0.61,0.08-1.9-0.8-2.01-1.36
		C313.75,440.59,310.5,438.79,306.02,436.8z M219.4,289.41c0,12.63,0,24.7,0,36.57c-3.47-5.47-5.39-11.74-5.52-18.34
		c-0.1-5.55,0.4-11.11,0.64-16.86C215.34,290.55,216.71,290.17,219.4,289.41z M240.42,418.1c3.95,0.42,7.71,1.55,11.12,1
		c3.61-0.59,6.89-2.78,10.55-4.37c0.4,0.57,1.06,1.5,1.89,2.68c-8.07,4.88-14.48,12.01-25.88,11.97c2.51-3.9,5.53-5.95,10.35-5.06
		C245.67,421.88,239.65,423.21,240.42,418.1z M284.4,340.93c5.4-0.99,7.84-4.09,9.44-8.16c0.54-1.38,2.18-2.42,3.31-3.61
		c0.68,0.26,1.36,0.52,2.04,0.78c-0.53,4.64-0.82,9.33-1.76,13.9c-0.24,1.16-2.5,2.66-3.97,2.79c-2.78,0.24-5.65-0.39-8.75-0.69
		C284.62,344.41,284.52,342.85,284.4,340.93z M228.76,315.6c-0.58-3.88-1.76-7.78-1.56-11.63c0.19-3.69,1.14-7.63,3.03-10.87
		c1.75-3.01,5.19-5.25,8.55-8.47c0.27,3.16,1.67,6.36,0.48,7.65C232.89,299.14,230.8,307.22,228.76,315.6z M387.37,353.88
		c-0.82-9.82-1.62-19.48-2.52-30.27c1.74,2.92,3.22,4.95,4.2,7.15c1.18,2.69,1.59,5.66,2.94,8.27
		C395.52,345.84,394.73,348.93,387.37,353.88z M394.35,419.7c-1.27,7.08-9,12.86-19.03,14.72c2.35-4.1,4.99-8.7,8.02-13.99
		C386.09,420.25,390.23,419.97,394.35,419.7z M368.67,405.57c-6,8.15-11.34,15.41-16.86,22.93c-1.09-0.65-2.23-1.33-2.84-1.69
		c1.28-3.57,3-6.65,3.36-9.84c0.4-3.55,2.66-4.93,5.72-6.25C361.17,409.38,364.15,407.78,368.67,405.57z M239.43,414.24
		c6.7-1.85,11.65-7.37,19.19-6.19c1.43,4.16,0.83,7.12-3.66,8.91C249.17,419.27,244.21,418.4,239.43,414.24z M256.9,246.98
		c0.42-0.16,0.83-0.32,1.25-0.48c4.76,3.5,9.95,6.84,9.44,13.37c-0.26,3.26-1.6,6.2-6.27,6.82c0.28-2.09,0.54-4.02,0.84-6.24
		c-1.47,0.29-2.35,0.47-3.66,0.74C257.96,256.36,257.43,251.67,256.9,246.98z M268.6,351.07c1.08-5.88,7.37-10.74,13.8-10.9
		C284.54,351.41,281.63,355,268.6,351.07z M356.13,423.33c2.83,9.46-4.27,21.06-13.64,23.67c-1.73,0.48-3.84,0.14-5.71-0.14
		c-2.82-0.42-5.58-1.12-8.36-1.69C343.92,444.57,355.21,439.39,356.13,423.33z M249.7,408.16c-3.51,1.63-6.73,3.21-10.06,4.6
		c-0.83,0.34-2.12,0.28-3-0.03c-3.36-1.17-5.84-4.97-4.66-6.87c1.26-2.02,7.13-3.18,9.84-1.85
		C244.34,405.25,246.78,406.62,249.7,408.16z M259.83,355.04c-6.65-7.87-6.73-36.82,6.22-50.12c-0.18,1.21-0.77,2.28-1.3,3.37
		c-0.55,1.15-1.2,2.29-1.5,3.49c-0.58,2.3-0.4,4.88-1.51,6.93c-4.63,8.56-6.6,17.29-3.86,26.67
		C258.76,348.45,259.15,351.63,259.83,355.04z M250.29,260.71c3.13,2.68,3.91,5.18,2.16,8.4c-2.28,4.18-3.76,8.69-5.78,12.99
		c-1.13,2.39-2.68,4.63-4.04,6.93c-0.49-0.18-0.97-0.36-1.46-0.54C244.21,279.23,247.25,269.97,250.29,260.71z M412.17,397.34
		c-0.83,0.99-1.56,2.73-2.92,3.33c-5.39,2.39-10.98,4.42-16.49,6.6c-4.54,1.79-9.07,3.61-13.6,5.41c3.12-4.89,7.41-7.86,13.13-9.34
		C398.8,401.67,405.14,399.49,412.17,397.34z M344.83,371.86c-6.15-4.24-7.63-12.31-16.62-13.25c8.46-1.77,13.91,3.41,20.83,5.92
		C347.45,367.3,346.14,369.57,344.83,371.86z M414.8,362.39c-2.22,7.75-10.71,13.31-19.49,18.88c-0.05-1.52-0.11-3.34,0.88-4.16
		C402.75,371.71,409.53,366.52,414.8,362.39z M366.6,305.31c-8.15,2.33-13.69,5.92-14.14,13.37c-0.45-1.11-0.89-2.23-1.52-3.77
		c-1.87,1.57-3.29,2.76-4.71,3.96c0.21-1.77,1.24-2.92,2.21-4.1c0.82-0.99,1.98-1.92,2.31-3.04
		C352.74,305.04,357.08,302.96,366.6,305.31z M277.04,474.4c1.1-1.37,1.91-3.49,3.36-3.93c2.61-0.79,6.29-1.58,8.27-0.52
		c2.89,1.55,0.89,3.79-1.34,5.5C282.43,479.19,282.18,479.24,277.04,474.4z M395.57,384.64c1.81-1.79,3.39-3.84,5.46-5.33
		c5.5-3.98,11.21-7.72,16.09-11.04C413.52,375.91,406.85,382.29,395.57,384.64z M252.51,345.55c-6.9-4.7-5.03-17.05-1.62-24.87
		C251.39,328.39,251.92,336.6,252.51,345.55z M366.14,377.67c0.61-0.02,1.22-0.05,1.83-0.07c4.97,7.81,3.47,20.96-1.83,25.72
		C366.14,395.5,366.14,386.59,366.14,377.67z M187.16,333.28c-5.68-1.31-10.49-8.83-8.97-16.09c0.64,6.06,3.62,7.9,8.97,6.4
		C187.16,327.24,187.16,330.25,187.16,333.28z M412.22,380.41c3.54-7.24,7.15-14.62,10.96-22.39
		C424.7,368.66,423.21,371.59,412.22,380.41z M412.74,330.76c-0.57,2.4-0.39,5.98-2.21,8.33c-2.74,3.54-6.87,6.22-10.32,9.19
		c-1.52-2.53-0.76-5.16,1.96-7.61C405.84,337.37,409.37,333.93,412.74,330.76z M411.09,330.77c-4.47,4.17-8.41,7.85-12.49,11.65
		c-1.81-3.95-0.28-7.57,3.1-9.47c1.68-0.95,2.78-2.72,4.14-4.13c0.17-0.18,0.31-0.38,0.47-0.58
		C407.55,328.9,408.65,329.48,411.09,330.77z M380.65,308.26c-0.4-3.4-0.75-6.38-1.13-9.62c4.17,0,8.46-0.76,11.3,3.39
		c-1.82,1.02-3.49,1.9-5.08,2.88C384.03,305.96,382.39,307.11,380.65,308.26z M269.08,281.65c0.8,3.78-2.3,7.5-9.73,11.96
		C262.18,279.63,262.61,280.86,269.08,281.65z M364.78,396.13c0.7,7.26-3.59,12.47-12.61,15.18
		C354.02,404.26,362.84,402.46,364.78,396.13z M406.22,383.32c0.38,0.33,0.76,0.66,1.14,0.99c-4.55,3.97-9.11,7.94-13.66,11.91
		c-0.34-0.25-0.68-0.5-1.01-0.75c1.3-2.76,1.88-6.17,4.09-8.11C399.13,385.28,403.01,384.6,406.22,383.32z M166.58,356.69
		c-0.26,0.36-0.52,0.72-0.78,1.08c-4.2-3.51-11.79-2.08-15.03-8.89c3.18,0,5.99-0.77,7.39,0.16
		C161.33,351.15,163.81,354.09,166.58,356.69z M368.54,295.48c2.03,2.59,3.86,4.95,5.7,7.3c-2.62-0.57-5.93-2.67-6.25-2.36
		c-3.98,3.92-9.95,0.99-14.32,3.36C358.48,301.1,363.28,298.42,368.54,295.48z M212.89,347.69c-5.46-3.28-13.17-5.3-10.88-13.77
		c1.19,0.68,2.63,1.05,3.21,1.9C207.91,339.71,210.35,343.72,212.89,347.69z M372.02,320.7c0.54-0.28,1.08-0.56,1.61-0.84
		c2.98,5.95,5.96,11.9,8.94,17.85c-0.36,0.19-0.72,0.38-1.07,0.57c-3.37-3.87-6.74-7.75-10.1-11.62c0.91-0.61,2-1.32,3.17-2.1
		C373.61,323.11,372.81,321.91,372.02,320.7z M228.73,276.1c5.71,0.11,8.08-1.6,7.46-6.2c-0.15-1.06,2.14-2.39,3.92-4.23
		c0.52,3.76,0.87,6.29,1.31,9.45C237.09,274.4,234.52,280.45,228.73,276.1z M385.96,355.48c-9.98-5.47-1.54-11.11-2.72-16.18
		c0.44-0.03,0.87-0.06,1.31-0.1C384.99,344.25,385.43,349.29,385.96,355.48z M342.52,331.42c-1.54-3.21,2.68-10.36,7.94-13.42
		C351.01,324.03,347.31,327.96,342.52,331.42z M364.27,310.02c0.32,0.17,0.64,0.34,0.96,0.51c-0.44,2.12-0.66,4.3-1.39,6.34
		c-0.44,1.21-1.45,2.54-2.64,3.14c-0.61,0.31-2.87-0.67-3.12-1.42c-0.43-1.23-0.39-3.13,0.43-4.06
		C360.06,312.77,362.31,311.49,364.27,310.02z M226.05,284.25c6.24-3.44,11.56-6.38,16.88-9.32c0.29,0.38,0.59,0.77,0.88,1.15
		c-5.47,2.18-10.74,4.52-10.1,11.18C231.29,286.31,229.32,285.54,226.05,284.25z M333.9,285.27c3.99-2.34,7.18-4.22,10.38-6.1
		c0.31,0.18,0.61,0.37,0.92,0.55c-1.5,3.12-2.99,6.23-4.65,9.7C338.1,287.89,336.42,286.84,333.9,285.27z M176.32,330.84
		c2.32,1.28,4.27,3.24,6.34,3.35c6.22,0.34,5.99,4.02,6.43,7.64c-4.43-3.03-8.68-5.95-13.42-9.19
		C175.68,332.65,175.99,331.77,176.32,330.84z M327.44,274.28c0.08,0.48,0.15,0.96,0.23,1.45c-5.35,0.77-10.71,1.54-15.99,2.3
		c0.16-0.68,0.45-1.91,0.87-3.74C317.44,274.28,322.44,274.28,327.44,274.28z M251.69,276.78c-0.39-0.22-0.78-0.43-1.17-0.65
		c3.11-4.13,2.7-10.17,9-12.56c0.51,0.3,1.02,0.6,1.54,0.9C257.93,268.58,254.81,272.68,251.69,276.78z M355.85,274.35
		c4.63,2.16,9.06,4.22,13.48,6.28c-0.04,0.27-0.09,0.54-0.13,0.81c-4.81-1.18-9.62-2.36-14.67-3.59
		C355.06,276.45,355.49,275.29,355.85,274.35z M276.43,276.82c1.49,4.54-1.64,5.57-4.81,6.71c-0.75-1.61-1.4-2.98-2.29-4.87
		C271.72,278.04,273.96,277.46,276.43,276.82z M420.74,374.62c-2.51,5.1-4.83,10.37-12.58,11.91
		C412.69,382.24,416.71,378.43,420.74,374.62z M225.51,299.09c0.82-4.66,1.49-8.42,2.32-13.14c2.22,1.6,3.66,2.63,5.1,3.67
		c0.11,0.36,0.22,0.72,0.33,1.08C226.39,290.45,228.94,295.81,225.51,299.09z M259.4,473.64c-4.51,2.66-8.59,1.48-11.35-0.79
		c-1.36-1.12-0.24-4.63-0.24-7.07c0.42,0,0.84,0,1.26,0C248.73,472.06,249,472.29,259.4,473.64z M252.5,304.75
		c-2.73-5.9,1.84-9.12,5.53-12.61C256.23,296.24,254.43,300.34,252.5,304.75z M225.17,301.5c1.06,6.73,2.12,13.46,3.18,20.19
		C226.37,315.05,223.5,308.53,225.17,301.5z M360.99,443.02c0.12,0.46,0.25,0.93,0.37,1.39c-4.49,1.12-8.98,2.24-13.47,3.35
		c-0.19-0.62-0.38-1.24-0.57-1.86C351.87,444.94,356.43,443.98,360.99,443.02z M248.81,314.57c0.49,0.06,0.98,0.12,1.47,0.18
		c-1.13,4.58-2.27,9.16-3.4,13.74c-0.5-0.1-1.01-0.2-1.51-0.31C246.51,323.65,247.66,319.11,248.81,314.57z M385.14,334.74
		c-0.63,0.24-1.26,0.49-1.89,0.73c-1.67-3.13-3.34-6.27-5.01-9.4c0.47-0.2,0.94-0.4,1.41-0.6
		C381.48,328.56,383.31,331.65,385.14,334.74z M359.24,447.39c-0.12-0.34-0.24-0.68-0.36-1.02c3.36-0.5,5.36-5.25,10.72-1.95
		C365.67,445.55,362.45,446.47,359.24,447.39z"/>
	<path class="st1" d="M213.52,477.47c-2.52,2.42-6.3,5.21-8.85,8.7c-3.83,5.26-2.17,8.64,3.56,11.11c3.58-2.43,6.38-5.29,9.89-6.52
		c8.58-3.02,15.16-7.99,20.58-14.4c4.59-5.43,8.72-10.77,10.58-17.84c1.34-5.11,6.43-9.54,10.24-13.99
		c1.95-2.27,4.78-3.94,7.17-6.16c-17.58,8.46-36.67,2.41-54.75,6.04c-0.14-0.48-0.28-0.96-0.42-1.44c0.57-0.59,1.08-1.25,1.74-1.74
		c0.73-0.55,1.61-0.94,3.13-1.8c-5.32-1-7.6-3.77-8.59-7.76c-0.26-1.05-1.77-2.22-3-2.65c-10.13-3.54-11.07-6.79-3.81-13.89
		c0.32-0.31,0.54-0.7,0.44-0.57c-1.98-6.61-8.58-6.72-13.89-8.62c-5.1-1.83-3.46-6.55-5.18-9.83c-0.68-1.29-0.11-3.1-1.19-4.72
		c1.28-1.74,2.57-3.48,4-5.43c1.4,0.31,2.92,0.64,4.66,1.02c-4.01-6.64-17.78-13.39-24.71-10.02c-7.49,3.63-17.59,4.94-21.42,13.4
		c-2.93,6.47-5.87,12.95-8.37,19.55c-1.97,5.22-2.29,10.6,0.78,15.75c0.45,0.76,0.93,1.7,0.82,2.5c-0.95,7.25,4.03,11.84,8.83,16.72
		c4.68,4.75,6.74,10.35,6.58,16.91c-0.43,17.82,12.77,32.28,32.44,36.22c5.12,1.03,9.52-0.14,12.64-3.95
		c2.21-2.7,4.2-5.58,5.94-8.54C205.84,481.22,209.47,478.41,213.52,477.47z"/>
	<path class="st1" d="M156.04,250.88c0.35-0.83,0.71-1.66,1.12-2.63c7.5,1.69,7.51,6.96,7.41,13.49c1.86-2.3,2.8-3.46,4.45-5.49
		c11.93,11.48,19.02,25.09,26.02,39.24c2.25-3.91,4.19-7.66,6.52-11.22c1.65-2.51,3.82-4.76,5.9-7.3c0.45,0.67,1.19,1.77,2.45,3.64
		c1.94-3.78,3.27-7.05,5.25-9.97c1.1-1.61,3.69-3.94,4.94-3.65c2.95,0.69,7.16,1.22,6.76,5.59c-0.06,0.68,0.33,1.4,0.52,2.11
		c4.62,0.29,8.27-0.19,7.23-5.54c-0.1-0.51,0.11-1.45,0.49-1.61c5.54-2.39,5.1-7.66,7.3-11.67c2.25-4.09,5.14-7.78,11.51-7.83
		c-0.58-1.97-0.94-3.83-1.67-5.56c-1.95-4.62-4.07-9.18-6.11-13.77c-2.1-4.74-5.91-8.06-11.04-10.07c-4.79-1.87-9.78-3.31-14.6-5.11
		c-2.85-1.06-5.8-2.14-8.26-3.76c-7.39-4.85-13.84-3.96-18.78,3.13c-0.72,1.04-0.48,2.67-0.51,4.02c-0.07,2.95-0.02,5.9-0.02,8.85
		c-0.44,0-0.88-0.01-1.31-0.01c0.15-2.11,0.41-4.21,0.42-6.32c0.04-6.86-6.52-9.67-10.91-13.78c-0.45-0.42-1.78-0.15-2.7-0.1
		c-2.06,0.11-4.11,0.27-6.17,0.43c-0.9,0.07-2.55,0.1-2.58,0.32c-0.99,5.86-11.37,6.01-10.1,13.19c0.04,0.22-0.23,0.65-0.47,0.73
		c-6.3,2.24-5.27,7.35-5.57,11.76c-0.31,4.59,2.88,9.32-1.23,13.87c-0.65,0.72,1.58,3.49,2.47,5.31
		C155.2,251.09,155.62,250.99,156.04,250.88z"/>
	<path class="st1" d="M352.48,456.64c1.47,0.76,2.85,1.92,4.43,2.22c18.92,3.57,37.85,4.58,56.89,0.35
		c3.76-0.83,7.93-0.51,11.88-0.26c9.73,0.61,19.43,1.71,29.17,2.17c8.59,0.41,17.21,0.12,25.81,0.33
		c7.66,0.18,15.06-0.61,21.72-4.19c1.12-0.61,2.28-2.83,1.85-3.66c-0.61-1.18-2.58-2.05-4.16-2.52c-1.38-0.41-3.03-0.09-4.63-0.67
		c2.17-0.32,4.33-0.65,6.5-0.97c-0.04-0.21-0.08-0.42-0.11-0.63c-3.74-0.53-7.47-1.05-11.21-1.58c0.04-0.28,0.08-0.56,0.13-0.84
		c1.59,0.24,3.19,0.41,4.76,0.73c4.54,0.92,7.66-0.9,9.79-4.21c2.46-3.82,1.37-11.39-1.88-14.82c-4.74-5-9.59-9.92-14.14-15.05
		c-5.91-6.68-14.3-9.35-22.74-12.39c3.45,0.81,6.91,1.62,10.36,2.42c0.11-0.17,0.21-0.35,0.32-0.52c-2.32-1.17-4.5-2.94-6.99-3.41
		c-10.69-2-21.46-3.64-32.22-5.36c-1.1-0.18-2.4-0.21-3.41,0.14c-8.57,2.96-17.1,6.03-25.66,9.08c3.12,3.16,0.64,4.86-2.18,6.34
		c-6.17,3.22-12.4,6.36-19.9,10.19c4.11-0.9,6.84-1.51,10.04-2.21c-2.08,13.8-15.21,15.83-25.4,20.56c3.96,3.17-0.08,5.29-1.21,7.81
		c4.49,1.17,9.04,2.48,13.66,3.54c6.4,1.46,12.15,0.32,17.57-3.26c3.08-2.04,6.76-3.42,10.31-4.8c5.68-2.22,11.63-3.9,17.17-6.34
		c6.75-2.98,13.74-3.62,21.09-3.53c2.92,0.03,5.95-0.98,8.78-1.88c4.74-1.51,9.31-3.51,12.79,1.94c0.43,0.67,2.63,0.89,3.82,0.63
		c3.3-0.72,6.5-1.81,9.75-2.76c0.56,1.29,1.82,2.74,1.48,3.76c-0.6,1.79-1.75,4.22-3.4,4.83c-10.52,3.9-20.95,8.53-31.96,10.76
		c-20.87,4.22-42.1,7.04-63.21,10.31c-11.91,1.85-23.38-0.47-34.72-3.56C353.1,455.75,352.79,456.2,352.48,456.64z"/>
	<path class="st1" d="M91.65,298.07c7.78,8.75,8.86,19.28,10.34,27.67c-3-8.26-6.68-18.39-10.37-28.53
		c-6.5,1.86-7.83,7.59-6.34,19.9c-0.68-1.76-1.36-3.51-2.54-6.56c-0.71,2.72-1.36,4.25-1.49,5.82
		c-1.53,17.24,0.67,33.57,14.64,46.99c6.78,6.52,13.6,13.02,20.19,19.69c4.29,4.34,8.23,8.95,12.28,13.47
		c2.1,2.35,4.1,4.77,6.49,7.57c2.75-5.27,4.84-9.98,7.61-14.35c2.89-4.58,6.11-9.15,13.22-9.14c0.79,0,1.86-0.73,2.33-1.38
		c2.81-3.96,7.06-4.17,11.68-3.98c4.74,0.19,9.49,0.04,14.24,0.04c0.1-0.52,0.19-1.03,0.29-1.55c-5.39-2.32-10.79-4.63-16.16-6.98
		c-3.08-1.35-6-3.09-9.2-4.1c-6.82-2.14-6.48-8.08-8.69-12.61c-0.34-0.7,1.62-2.3,2.51-3.47c-1.72-3.78-3.62-7.95-5.51-12.12
		c-0.24-0.53-0.31-1.33-0.75-1.56c-9.85-5.22-10.88-14.92-14.12-23.18c-2.53-6.45-6.99-9.36-13.79-10.77
		c-6.05-1.26-11.98-3.04-18.08-3.94c-2.5-0.37-5.31,0.96-7.99,1.52C92.15,297.04,91.9,297.56,91.65,298.07z"/>
	<path class="st1" d="M181.11,332.08c-6.53-10.56-6.73-11.53-3.29-18.49c0.93,2.43,1.34,4.38,2.4,5.97
		c0.84,1.25,2.49,2.07,3.78,3.08c0.94-1.28,2.1-2.48,2.76-3.87c0.41-0.87,0.12-2.02,0.07-3.04c-0.24-4.65,1.48-8.05,8.58-9.04
		c-1.42-5.34-1.83-10.86-4.35-15.48c-5.34-9.79-11.75-19.13-17.82-28.61c-0.94-1.47-2.42-2.66-4.29-4.65
		c-1.56,3.78-2.82,6.83-3.98,9.64c-0.07-1.42-0.17-3.24-0.26-5.06c-0.25-0.02-0.5-0.05-0.76-0.07c-0.61,3.36-1.22,6.72-1.77,9.74
		c-2.15-6.9,4.51-15.21-2.46-21.9c-0.87,0.07-1.15,0.04-1.18,0.1c-0.33,0.75-0.62,1.51-1.09,2.68c-2.6-1.15-5.1-2.24-6.99-3.07
		c-0.65,5.43-0.88,10.72-2.02,15.84c-1.16,5.24-3.23,10.31-5.74,15.3c1.3-4.66,2.56-9.34,3.91-13.99
		c0.67-2.33-2.75-10.01-5.23-10.59c-1.23-0.29-3.12,0.45-4.25,1.24c-2.43,1.7-4.5,3.49-3.78,6.95c0.66,3.14,0.14,6.47-0.89,9.68
		c0.23-1.57,0.7-3.15,0.64-4.7c-0.07-1.62-0.66-3.22-1.03-4.83c-0.46-0.06-0.92-0.13-1.38-0.19c-0.79,1.6-1.85,3.14-2.33,4.81
		c-2.11,7.3-2.95,14.75-0.44,22.05c3.92,11.4,8.08,22.74,12.69,33.93c0.99,2.41,4.21,4.19,6.66,5.98c1.59,1.16,3.64,1.82,5.26,3.31
		c-1.04-0.19-2.08-0.39-3.97-0.74c2.83,5.22,2.61,11.32,10.14,13.59c2.14,0.65,3.53,3.28,5.67,5.41c1.42-1.55,2.6-2.83,3.94-4.3
		c1.04,0.36,2.21,0.76,3.91,1.35c-1.45-4.6-2.8-8.88-4.44-14.07c0.88-0.34,3.36-0.78,4.94-2.08c1.51-1.25,2.08-3.4,3.24-5.47
		C177.71,329.72,179.16,330.73,181.11,332.08z"/>
	<path class="st1" d="M376.49,315.15c3.01-0.84,4.92-1.17,6.62-1.89c4.15-1.74,7.73-1.28,11.38,1.25c1.6,1.11,3.99,1.31,6.92,2.18
		c0,4.26,0,9.37,0,14.47c0.51,0.09,1.02,0.19,1.53,0.28c0.68-1.96,1.37-3.92,2.17-6.22c1.31,0.91,2.51,1.74,3.83,2.65
		c1.24-0.58,2.5-1.15,4.61-2.13c0,3.87,0,7.19,0,10.84c1.42,0.41,3.03,0.65,4.39,1.31c6.97,3.39,9.92,6,8.23,12.52
		c-0.92,3.56-0.32,7.49-0.08,11.23c0.64,9.89,0.51,19.44-8.45,27.05c-4.72,4.01-4.44,4.27-3.88,10.65
		c10.01-1.07,17.78-5.18,21.77-13.45c5.13-10.65,14.39-17.09,25.57-21.92c1.18-0.51,2.37-1.03,3.61-1.36
		c9.84-2.54,12.73-9.26,7-16.95c-3.89-5.22-8.23-10.16-12.18-15.34c-3.95-5.17-8.35-10.2-11.32-15.81
		c-3.68-6.96-9.08-10.18-17.6-10.19c-3.34,0-7.02-0.63-9.97-1.97c-17.76-8.09-31.66,1.4-41.59,9.22
		C378.21,312.25,377.77,313.34,376.49,315.15z"/>
	<path class="st1" d="M420.99,482.89c-5.17,1.89-8.28,2.95-10.27-1.53c-0.56-1.26-4.34-1.39-6.81-2.09c0.53-0.27,1.17-0.6,2.78-1.42
		c-6.04,0.71-10.99,1.77-15.94,1.75c-4.94-0.03-9.86-1.14-14.79-2.27c1.46-0.11,2.91-0.22,4.37-0.33c0.12-0.36,0.24-0.72,0.35-1.08
		c-5.06-1.67-10.21-3.17-15.13-5.13c-1.44-0.57-1.95-2.76-3.3-3.76c-2.52-1.84-5.34-3.35-8-4.97c-5.5,4.94-6.59,4.93-13.67,2.27
		c-2.53-0.95-5.69-1.27-8.42-0.94c-9.8,1.19-19.28,0.12-28.59-2.47c-1.97-0.55-3.67-1.84-5.75-2.92c0.54,2.91,1.65,6.44-3.75,6.23
		c-3.23-0.12-6.43-0.81-9.64-1.24c-0.31,0.37-0.63,0.75-0.94,1.12c1.54,1.23,2.9,2.76,4.66,3.64c3.95,1.97,4.61,4.87,1.41,7.72
		c-5.33,4.74-5.69,4.71-12.18,1.38c-1.01-0.52-2.72,0.03-4.1,0.1c-4.7,0.24-9.4,0.48-14.44,0.73c-0.34,1.12-1.15,3.39-1.7,5.72
		c-0.56,2.37-0.85,4.8-1.37,7.85c8.19-1.32,15.65-2.57,23.14-3.73c8.32-1.28,15.94-0.77,21.36,6.24c1.01,1.31,3.27,2.11,5.13,2.57
		c2.65,0.66,5.52,0.63,8.21,1.19c8.27,1.71,16.21,1.15,23.94-2.13c2.63-1.11,5.48-1.92,8.34-2.42c1.05-0.18,2.39,0.95,3.59,1.48
		c-0.76,0.82-1.39,1.77-2.29,2.43c-1.88,1.37-3.91,2.58-5.46,4.55c13.46-0.27,26.4-1.51,37.37-9.11c2.2-1.52,4.33-3.15,6.72-4.4
		c1.79-0.93,4.1-2.11,5.9-1.82c6.5,1.04,13.03,2.3,19.26,4.22c2.89,0.89,5.8,2.61,8,0.44C420.46,489.3,420.18,486.41,420.99,482.89z
		"/>
	<path class="st1" d="M270.21,256.91c6.05-5.89,19.02-8.03,30.19-4.42c1.19-1.42,2.43-2.9,4.45-5.32c0.84,3.91,4.4,6.45,0.5,10.03
		c-0.64,0.59,0.19,2.95,1,4.14c0.68,1,2.31,1.48,3.66,2.27c1.43-0.9,2.87-2.29,4.62-2.75c1.33-0.35,3.79,0.07,4.4,0.91
		c0.67,0.93,0.3,3.08-0.54,4.09c-1.41,1.69-3.55,2.89-4.74,3.81c2.14,0.85,4.08,2.06,6.17,2.35c2.89,0.4,5.91,0.1,8.97,0.1
		c0.6,4.82,0.6,4.82-10.23,6.58c0,1.79,0,3.64,0,5.66c9.01,3.72,15.92-0.58,22.73-5.15c0.91-0.61,1.6-1.49,2.52-2.08
		c2.21-1.41,2.89-5.2,7.19-3.58c0.52,0.2,1.9-1.39,2.9-2.17c1.37,0.57,2.75,1.14,4.44,1.85c0.61-3.98-0.27-6.19-5.05-6.64
		c-1.4-0.13-3.81-2.89-3.55-4.04c1.66-7.27-2.4-12.93-5.87-18.8c-0.61-1.03-1.57-1.89-2.16-2.92c-2.25-3.94-5.78-5.37-10.09-3.22
		c-3.93,1.96-6.98,0.82-10.55-1.64c0,2.46,0,4.27,0,6.07c-0.2,0.01-0.4,0.03-0.6,0.04c-0.45-2.58-0.67-5.2-1.4-7.71
		c-1.01-3.48-2.3-6.93-7.78-6.02c-0.74,0.12-1.89,0.01-2.33-0.42c-2.36-2.32-5.41-1.13-7.96-1.65c-6.49-1.32-11.63,1.78-17.4,2.44
		c-1.12,0.13-2.46,1.52-2.93,2.6c-0.55,1.25-0.25,2.79-1.05,4.27c-0.27-1.77-0.54-3.54-0.87-5.73c-7.76,2.66-14.21,6.47-17.2,13.62
		c-0.52,1.24,0.14,3.28,1.04,4.5C264.93,251.08,267.62,253.89,270.21,256.91z"/>
	<path class="st1" d="M266.13,372.44c4.65,3.49,5.1,8.3,5.01,13.38c-0.02,1.29,1.45,2.61,2.6,4.51c3.95-5.45,7.08-9.75,9.87-13.61
		c3.08-1.43,5.95-2.82,8.87-4.1c1.42-0.63,2.96-1.54,4.43-1.51c8.4,0.17,16.8,0.58,25.12,0.9c2.08-3.13,4.26-6.41,5.56-8.37
		c0.18-3.2,0.35-5.19,0.39-7.18c0.03-1.38,0.34-2.96-0.28-4.1c-2.37-4.41-4.84-8.82-7.73-12.97c-1.68-2.41-10.34-1.28-13.43,1.18
		c-2.62,2.08-5.39,4.09-8.4,5.67c-4.36,2.28-4.48,5.66-4.54,9.48c-0.3-2.4-0.61-4.81-0.99-7.82c-1.52-0.1-3.49-0.23-5.89-0.39
		c0.29,1.94,0.5,3.3,0.81,5.33c-1.08-1.44-1.76-2.35-2.44-3.25c-6.57,5.36-6.57,5.36-15.13,3.31c-1.08,2.82-2.16,5.64-3.64,9.53
		c-1.34,0.94-3.94,2.93-6.72,4.69c-3.43,2.18-3.94,5.15-3.28,9.43C259.9,375.04,263.2,373.66,266.13,372.44z"/>
	<path class="st1" d="M482.98,431.64c-1.72,0.33-3.57,0.4-5.12,1.05c-3.81,1.61-6.57,1.45-9.06-2.14c-0.71-1.03-4.23-1.42-5.93-0.85
		c-5.63,1.88-10.91,3.64-17.35,2.94c-3.01-0.33-6.51,2.9-9.59,4.41c0.63-0.88,1.5-2.1,2.37-3.32c-0.17-0.26-0.35-0.53-0.52-0.79
		c-2.32,0.86-4.66,1.7-6.96,2.59c-4.94,1.91-9.91,3.76-14.77,5.8c-5.26,2.2-10.54,4.4-15.58,6.96c-6.28,3.19-12.89,3.95-19.31,1.47
		c-10.26-3.96-20.13-1.58-30.88,1.09c1.73,1.17,3.27,2.8,5.21,3.43c12.6,4.06,25.56,4.69,38.68,2.53
		c20.73-3.42,41.51-6.64,62.1-10.62c6.99-1.35,13.67-4.43,20.12-7.39c2.89-1.32,4.84-4.27,7.22-6.48
		C483.39,432.1,483.18,431.87,482.98,431.64z"/>
	<path class="st1" d="M343.9,394.7c-1.9,2.08-2.98,3.34-4.16,4.51c-0.62,0.61-1.38,1.43-2.17,1.52c-7.98,0.92-7.98,0.88-13.05,6.23
		c0.79-5.73,1.59-11.45,2.43-17.48c-4.38-0.05-7.39,0.23-8.9,3.75c-0.37,0.86-2.29,1.32-3.6,1.71c-3.97,1.19-8.02,2.18-11.98,3.41
		c-0.78,0.24-1.34,1.21-1.84,1.93c-2.87,4.09-4.88,8.34-10.63,10.83c-3.13,1.36-4,6.87-5.72,10.19c1.87,0.48,3.58,1.17,5.35,1.3
		c1.24,0.09,2.96-0.22,3.77-0.96c8.69-7.83,19.06-5.11,29.04-3.5c2.52,0.41,5.57,2.52,6.71,4.58c2.39,4.34,6.61,6.28,10.96,5.91
		c4.95-0.42,8.18-3.77,10.02-8.47C353.83,410.66,348.56,403.38,343.9,394.7z"/>
	<path class="st1" d="M347.08,493.98c-2.86,0.81-5.88,1.33-8.55,2.48c-8,3.44-16.22,4.23-24.86,2.52c-2.86-0.57-5.88-0.51-8.71-1.17
		c-1.91-0.44-4.36-1.22-5.28-2.55c-3.86-5.62-9.65-7.52-16.38-6.78c-9.03,0.99-17.96,2.67-26.94,4.06c-0.2,0.47-0.39,0.95-0.59,1.42
		c5.87,3.46,11.4,7.56,17.7,10.21c6.25,2.63,13.17,4.24,19.98,5.53c12.82,2.42,25.54,1.34,37.48-3.51
		c3.92-1.59,6.99-4.84,10.47-7.31c1.97-1.4,3.98-2.76,5.97-4.14C347.28,494.5,347.18,494.24,347.08,493.98z"/>
	<path class="st1" d="M365.23,255.56c-0.43-1.31-0.78-2.37-1.13-3.43c-0.34,0.04-0.68,0.09-1.02,0.13
		c-0.35,0.82-0.69,1.65-1.28,3.05c-0.56-10.5-5.27-13.19-12.61-9.02c0.67,5.96,1.14,11.46,2.04,16.9c0.16,0.94,2.09,2.27,3.29,2.35
		c4.27,0.29,6.13,2.75,5.7,5.82c-0.63,4.53,2.64,5.91,6.05,6.47c3.24,0.53,6.22,1.08,6.24,4.2c0.01,1.9-1.99,3.81-3.09,5.7
		c-0.22,0.38-0.5,0.73-1.71,2.49c3-0.63,5.16-0.53,6.42-1.43c5.61-4.01,11.09-8.19,16.37-12.54c2.91-2.39,1.77-4.88-0.65-7.22
		c-3.94-3.81-7.93-7.6-11.51-11.67C374.29,252.78,370.62,252.15,365.23,255.56z"/>
	<path class="st1" d="M485.19,462.1c-11.31,0.21-22.63,0.46-33.94,0.62c-2.6,0.04-5.23-0.11-7.81-0.43
		c-7.41-0.92-14.78-2.05-22.19-2.92c-1.71-0.2-3.6,0.09-5.28,0.53c-20.04,5.27-40.09,3.92-60.17,0.22c-0.6-0.11-1.19-0.26-2.19-0.49
		c8.15,6.91,17.42,10.02,28.18,10.21c10.31,0.18,20.65,1.52,30.91,1.11c22.66-0.91,45.49-0.81,67.67-6.07
		c1.67-0.4,3.32-0.84,4.98-1.27C485.3,463.11,485.25,462.61,485.19,462.1z"/>
	<path class="st1" d="M366.3,369.09c2.94,8.31,7.58,15.56,7.48,22.76c-0.1,7.27-4.91,14.49-7.92,22.44c5.28-1.8,8.19-5.8,12.54-8.33
		c-2.86,2.83-5.73,5.66-8.59,8.49c0.18,0.1,0.53,0.4,0.63,0.34c12.64-7.13,22.45-16.09,23.5-30.27c0.23-3.13-0.85-6.33-1.38-9.49
		c-0.09-0.56-0.31-1.4-0.74-1.57c-5.72-2.32-11.31-5.09-17.31-6.54C371.89,366.3,368.44,368.47,366.3,369.09z"/>
	<path class="st1" d="M297.06,318.37c1.23,4.56,2.47,9.12,3.82,14.12c3.11-4.1,7.21-4.31,12.02-2.91c1.26,0.37,3.32-0.6,4.65-1.42
		c4.82-2.95,9.41-4.87,15.37-1.79c2.61,1.35,6.5,2.49,9.16-0.75c2.47-3.01,2.76-9.8,0.65-11.95c-1.07-1.09-2.18-2.14-3.46-3.39
		c-3.32,2.59-6.56,1.54-9.65-0.53c-1.96-1.31-3.95-2.63-5.69-4.16c-3.06-2.69-5.82-2.35-9.12-0.18c-3.14,2.06-6.81,3.48-10.05,5.45
		c-1.05,0.64-1.37,2.16-2.2,3.16c-1.3,1.56-2.74,3.01-4.13,4.51C297.98,318.47,297.52,318.42,297.06,318.37z"/>
	<path class="st1" d="M285.78,391.44c-1.29-0.97-2.44-1.83-3.6-2.7c-0.99,1.05-1.99,2.1-2.5,2.65c-6.21-0.4-12.57-0.8-19.3-1.23
		c-0.2,2.03-0.35,3.58-0.54,5.54c-0.79-1.75-1.44-3.17-2.61-5.77c-0.79,2.34-1.17,3.45-1.79,5.31c-0.25-1.6-0.41-2.5-0.53-3.4
		c-0.37-2.77-2.47-2.88-4.66-2.13c-4.67,1.59-7.86,6.93-6.72,11.52c1.05,4.27,5.07,4.72,9.12,5.18c5.25,0.59,9.87-0.09,14.37-2.94
		c9.2-5.84,14.88-4.94,22.32,2.89c0.81,0.85,1.83,1.55,2.63,2.22c6.35-2.91,5.21-11.7,14.31-12.57c-1.03-1.2-1.56-2.28-2.49-2.82
		c-3.25-1.89-6.63-3.59-9.96-5.38C288.1,384.73,288.03,390.49,285.78,391.44z"/>
	<path class="st1" d="M238.33,399.56c0.37-2.84,0.65-4.93,1.03-7.87c1.36,1.41,2.04,2.11,2.76,2.86c1.32-1.37,2.67-2.77,4.68-4.85
		c-5.06-0.8-9.52-1.51-13.99-2.22c0.02-0.18,0.05-0.35,0.07-0.53c4.02,0.29,8.04,0.57,12.33,0.88c-0.34-2.25-2.82-5.16,2.5-5.26
		c-3.4-1.51-6.87-2.91-10.19-4.54c-5.85-2.87-11.73-5.71-17.39-8.86c-4.18-2.33-9.28-2.22-13.04,0.86
		c-3.56,2.92-4.13,5.93-0.91,10.19C213.88,390.4,225.54,395.44,238.33,399.56z"/>
	<path class="st1" d="M313.46,372.34c0.75,2.26,1.28,3.87,1.81,5.48c-1.61-5.75-6.72-4.92-11.39-5.01
		c-4.99-0.1-10.06-1.04-13.93,3.22c-0.92,1.01-3.31,0.95-4.88,1.35c-2.92,3.99-5.8,7.94-8.74,11.96c3.78-0.74,6.83-1.33,10.93-2.13
		c1.3-2.54,4.14-2.55,7.56-0.43c3.97,2.46,7.74,5.49,12.15,6.94c2.77,0.91,7.14,0.17,9.76-1.29c3.73-2.08,6.45-5.55,9.71-8.34
		c3.49-2.99,2.59-8.23-2.06-9.68C321.07,373.38,317.47,373.07,313.46,372.34z"/>
	<path class="st1" d="M308.67,434.28c1.25-0.11,2.25,0.07,2.81-0.29c4.5-2.89,7.4-1.15,10.11,2.34c0.79,1.02,2.64,2,3.96,1.96
		c3.66-0.12,5.62,1.05,5.45,4.52c8.36,0.04,15.26-1.95,19.93-8.07c0.84-1.11,1.55-3.52,0.94-4.04c-1.51-1.27-4.07-2.77-5.75-2.42
		c-3.69,0.77-7.1,2.62-10.92,4.16c0.47-0.78,0.93-1.56,1.69-2.81c-2.1-0.6-4.1-1.18-6.1-1.76c0.26-0.14,0.52-0.28,0.78-0.43
		c-3.11-2.72-5.81-7.15-9.41-7.83c-9.94-1.88-20.85-5.28-28.79,4.34c3.09,3.18,3.11,3.04,8.48,3.71
		C305.73,428.16,309.14,429.42,308.67,434.28z"/>
	<path class="st1" d="M334.18,460.7c-2.18-0.56-4.37-1.12-6.55-1.67c0.1-0.28,0.2-0.57,0.31-0.85c2.61,0.76,5.3,1.37,7.82,2.32
		c3.14,1.19,6.05,2.91,9.24,3.96c3.87,1.26,6.81-0.44,6.61-4.02c-0.18-3.11-1.08-6.29-2.31-9.22c-1.05-2.5-3.33-3.83-6.72-2.71
		c-1.28,0.42-2.99,0.52-4.27,0.14c-9.73-2.86-19.47-1.04-29.18-0.13c-3.41,0.32-7.34,0.87-4.69,5.65c0.43,0.77-0.36,2.08-0.66,3.47
		c3.26-0.29,6.23-0.56,10.69-0.96c-1.7,2.16-2.59,3.29-3.87,4.92c7.82,0,15.58,0,23.34,0C334.02,461.3,334.1,461,334.18,460.7z"/>
	<path class="st1" d="M238.07,314.93c-9.58,7.51-12.36,17.38-9.73,27.31c3.79,14.26,11.22,27.28,25.2,38.33
		c0-2.88,0.79-5.14-0.13-6.46c-6.29-9.12-9.5-19.03-11.1-29.56c-0.54-3.52-2.66-6.84-4-10.27c-2.1-5.36-2.71-10.76-0.68-16.28
		C237.99,317.03,237.94,315.95,238.07,314.93z"/>
	<path class="st1" d="M134.76,408.17c-0.62-1.46-1.01-3.05-1.93-4.34c-1.03-1.46-2.96-2.47-3.77-3.98
		c-4.63-8.68-12.95-14.45-20.09-21.23c-8.46-8.04-15.98-16.86-23.21-24.6C86.34,370.3,107.73,395.18,134.76,408.17z"/>
	<path class="st1" d="M409.06,346.22c0.23-1.47,0.45-2.95,0.78-5.07c-5.96,3.05-7.03,8.13-8.78,12.58
		c-2.62,6.68-4.57,13.56-6.77,20.36c-0.17,0.52-0.08,1.11-0.11,1.66c0.39,0.28,0.77,0.56,1.16,0.84c5.3-4.98,10.58-9.97,15.91-14.92
		c1.61-1.5,2.39-4.53,6.1-2.39c0.61,0.35,2.72-1.18,4.02-1.99c1.97-1.22,5.29-10.05,3.66-11.85c-2.44-2.69-5.93-4.69-9.23-6.64
		c-0.51-0.3-2.82,1.03-3.55,2.04c-1.2,1.65-1.8,3.65-2.65,5.5C409.42,346.3,409.24,346.26,409.06,346.22z"/>
	<path class="st1" d="M346.36,395.32c1.74,3.77,3.35,7.24,5.24,11.34c6.9-3.86,12.49-8.74,13.23-15.28
		c1.14-10.17,3.04-21.05-6.29-29.52c-0.51,0.05-1.01,0.1-1.52,0.15c0.2,3.78,0.4,7.56,0.6,11.34c-0.18,0.04-0.37,0.08-0.55,0.12
		c-0.44-3.2-1.32-6.41-1.21-9.59c0.12-3.38-0.7-5.71-5.27-6.74c1.31,9.1,2.94,17.96,3.72,26.88
		C354.73,388.95,351.69,392.86,346.36,395.32z"/>
	<path class="st1" d="M264.87,361.93c1.04-5.86,1.85-11.75,3.21-17.55c0.75-3.21,2.47-6.22,3.6-9.37c0.85-2.36,1.98-4.77,2.06-7.18
		c0.27-7.56,0.1-15.13,0.1-22.9c-1.97-0.73-3.69-1.37-6.04-2.25c0.46,4.79,0.87,9.07,1.29,13.36c-0.17,0.02-0.35,0.04-0.52,0.07
		c-0.55-2.3-1.1-4.6-1.64-6.9c-0.49-0.01-0.98-0.03-1.46-0.04c0.32,5.63,0.64,11.25,0.97,16.88c-0.38,0.03-0.76,0.06-1.14,0.09
		c0-2.77,0-5.55,0-8.64C256.57,325.77,255.98,345.56,264.87,361.93z"/>
	<path class="st1" d="M281.47,437.17c-0.97,2.94-1.54,4.68-2.57,7.78c0.04-5.32,2.14-10.07-3.99-12.09
		c-6.23,8.11-7.03,16.95-0.24,24.18c2.72,2.9,8.58,3.48,13.04,5.05c0.73,0.26,1.62,0.16,2.44,0.18c2.03,0.06,4.06,0.09,6.09,0.13
		c-0.53-2.02-0.76-4.16-1.66-6.04c-2.23-4.69-4.56-9.36-7.28-13.82C286.19,440.7,283.96,439.4,281.47,437.17z"/>
	<path class="st1" d="M327.23,385.54c0.22,4.25,0.35,7.76,0.6,11.27c0.09,1.3,0.47,2.58,0.71,3.87c1.2-0.62,2.86-0.97,3.51-1.9
		c2.75-3.93,7.3-4.1,11.6-4.79c5.78-0.92,9.69-4.96,9.04-10.07c-0.7-5.47-1.82-10.89-2.6-15.41
		C342.52,374.15,334.54,380.09,327.23,385.54z"/>
	<path class="st1" d="M343.25,302.44c4.64-3.35,5.76-6.77,3.31-11.68c-0.25,2.12-0.48,3.96-0.62,5.13
		c-4.2-3.02-8.44-6.11-12.76-9.11c-0.57-0.4-1.51-0.52-2.29-0.53c-4.19-0.07-8.4,0.09-12.57-0.14c-5.71-0.32-11.08,2.68-12.53,7.61
		c-0.78,2.65-1.03,5.43-1.68,9.05C317.43,294.42,329.99,296.64,343.25,302.44z"/>
	<path class="st1" d="M256.32,471.61c0.31-3.72,0.56-6.82,0.81-9.93c0.11,0.02,0.22,0.04,0.33,0.06c0.57,3.65,1.13,7.31,1.72,11.1
		c6.53-1.55,9.27-4.45,9.9-9.44c0.71-5.58,2.46-10.94-0.61-16.58c-1.07-1.97,0.34-5.02,0.68-8.09
		c-7.33,5.54-15.51,10.33-18.24,18.98c-1.17,3.7-0.77,7.99-0.12,11.89C251.18,471.95,253.58,473.66,256.32,471.61z"/>
	<path class="st1" d="M350.01,503.36c22.17,2.37,43-1.76,63.06-9.63c0.08-0.43,0.16-0.86,0.23-1.29c-2.95-0.8-5.88-1.68-8.86-2.37
		c-2.35-0.55-4.99-0.47-7.1-1.38c-4.56-1.97-8.79-1.54-12.33,1.27C374.99,497.94,363.11,501.75,350.01,503.36z"/>
	<path class="st1" d="M208.03,360.89c-8.42-12.18-6.97-26.15-9.74-39.31c-0.08-0.4-0.93-0.66-1.97-1.35c0,3.31,0,6.1,0,8.89
		c-0.31,0-0.63,0-0.94,0c0-6.47,0-12.95,0-19.74c-3.67-1.38-7.02-0.07-6.83,4c0.42,9.44,0.81,18.96,2.53,28.25
		C192.68,350.28,201.18,355.09,208.03,360.89z"/>
	<path class="st1" d="M352.81,443.37c11.72-1.96,20.26-8.04,26.28-16.99c2.65-3.95-0.27-8.89-5.33-9.69
		c-1.2-0.19-2.58,0.47-3.34,0.62c-2.31-0.57-5.67-2.05-6.28-1.43c-2.25,2.34-4.01,5.25-5.16,8.2c-0.93,2.39-0.3,5.25-1.13,7.69
		C356.57,435.6,354.64,439.26,352.81,443.37z"/>
	<path class="st1" d="M202.73,344.54c2.54,5.84,5.07,11.67,7.98,18.35c1.45-2.62,2.32-4.22,3.5-6.35c0.76,1.3,1.47,2,1.54,2.74
		c0.67,6.65,5.8,10.17,11.69,12.89c7.91,3.66,16.04,6.94,24.39,9.95C237.87,367.23,220.75,355.67,202.73,344.54z"/>
	<path class="st1" d="M185.51,376.16c2.57,1.36,5.14,2.72,7.71,4.08c-0.1,0.22-0.2,0.44-0.3,0.66c-3.63-1.57-7.26-3.15-11.81-5.12
		c0.69,1.44,0.8,2.34,1.36,2.76c8.77,6.52,17.62,12.95,26.4,19.45c2.9,2.14,5.99,2.32,9.03,0.65c3.13-1.72,5.56-1.43,8.28,0.77
		c1.63,1.31,3.87,2.19,6.01,2.76c1.16,0.31,2.67-0.44,3.48-0.6c-8.54-4.94-17.77-8.9-24.99-14.82
		C203.29,380.69,194.75,378.18,185.51,376.16z"/>
	<path class="st1" d="M287.55,422.53c-7.17,3.58-11.57-1.6-17.01-4.28c1.82,11.87,10.4,20.38,21.32,21.67
		c7.29,0.86,13.4-2.3,15.49-8.28C301.93,426.95,291.75,430.47,287.55,422.53z"/>
	<path class="st1" d="M377.61,335.81c-1.55,2.53-2.92,4.76-4.28,6.98c-0.21-0.09-0.42-0.18-0.63-0.27c1.01-2.2,2.03-4.41,3.04-6.61
		c-0.4-0.24-0.81-0.48-1.21-0.73c-0.15,0.54-0.3,1.08-0.5,1.8c-0.42-0.62-0.69-0.83-0.68-1.03c0.26-4.86-1.99-6.35-6.92-4.3
		c-4.65,1.94-9.68,3.57-10.05,9.4c-0.1,1.57-1.7,3.06-2.04,3.63c2.52,3.68,4.66,6.81,6.81,9.96c1.59-3.16,4.25-4.39,8.71-3.19
		c3.12,0.84,5.88-0.38,7.18-3.66C378.6,343.79,381.91,340,377.61,335.81z"/>
	<path class="st1" d="M236.36,441.98c11.9,0.13,24-0.79,34.43-8.03c2.58-1.79,3.55-3.54,1.73-6.27c-1.24-1.86-2.06-3.96-3.03-5.96
		c-1.43-2.96-3.46-3.28-5.96-1.03c-3.57,3.21-6.83,6.73-10.66,9.67C247.53,434.48,241.79,438.19,236.36,441.98z"/>
	<path class="st1" d="M341.23,358.78c3.86-3.98-2.18-12.3,7.02-13.6c-3.55-3.68-7.08-7.34-11.01-11.41
		c-3.16,1.07-7.02,2.19-10.69,3.67c-2.89,1.17-4.04,2.67-1.76,5.76c2.26,3.06,3.52,6.79,4.72,10.36c0.76,2.27,1.68,3.41,4.55,3.5
		C336.24,357.12,338.37,358.05,341.23,358.78z"/>
	<path class="st1" d="M304.5,262.12c-0.9-1.47-1.79-2.95-2.02-3.33c1.32-2.91,2.28-5.04,3.25-7.17c-0.39-0.12-0.78-0.25-1.17-0.37
		c-2.1,1.74-4.21,3.48-5.4,4.46c-1.63-1.41-2.65-3.06-3.93-3.24c-2.97-0.41-6.11-0.4-9.1-0.05c-12.07,1.41-12.54,1.75-17.63,10.37
		c1.37,0.91,3.06,2.03,4.75,3.15c3.24,2.17,6.14,3.14,9.79,0.08c4.01-3.36,8.82-5.37,14.79-3.86c2.08,0.52,4.52-0.08,6.79-0.17
		L304.5,262.12z"/>
	<path class="st1" d="M280.69,416.1c0.66,1.11,1.32,2.21,2.41,4.05c2.14-4.02,4.08-7.53,5.84-11.12c0.22-0.44-0.44-1.3-0.84-1.89
		c-4.19-6.12-11.31-7.69-18.07-4.01c-2.65,1.44-5.34,2.81-7.88,4.38c-0.8,0.5-1.58,1.49-1.69,2.33c-0.37,2.85,6.22,7.75,9.44,7.51
		c3.34-0.25,6.72-0.06,10.08-0.06C280.22,416.89,280.45,416.49,280.69,416.1z"/>
	<path class="st1" d="M211.25,408.66c-1.92-13.88-15.31-15.68-24.68-21.73c-1.44,1.96-2.39,3.25-3.44,4.67
		c1.7,1.78,3.38,3.54,5.34,5.6c-1.65-0.35-2.93-0.62-5.28-1.12c2.98,3.56,1.09,8.65,7.45,9.53c4.47,0.62,8.78,2.17,13.23,2.98
		C206.06,408.99,208.41,408.66,211.25,408.66z"/>
	<path class="st1" d="M278.09,278.93c6.08,0,11.77,0.97,16.77-0.28c4.85-1.21,9.2-4.47,13.18-7.46c0.5-0.37-2.13-6.19-4.19-6.72
		c-6.29-1.6-13.25-2.93-18.92,1.85C280.73,269.85,279.7,274.71,278.09,278.93z"/>
	<path class="st1" d="M239.97,424.72c-8.38-1.43-2.52-7.54-4.66-11.04c-11.2-0.17-14.13,3.51-10.25,10.95
		c1.13,2.17,3.28,3.91,4.52,6.05c0.66,1.13,0.39,2.7,0.59,4.61c0.29-0.43,0.2-0.31,0.13-0.19c-1.08,1.77-5.83,3.14-2.54,5.19
		c1.89,1.17,6.7-0.09,9.38-1.5c5.21-2.74,9.85-6.35,14.72-9.6c-0.27-0.36-0.54-0.71-0.81-1.07c-3.06,0.83-6.07,1.87-9.19,2.4
		c-1.58,0.27-3.36-0.37-5.05-0.6c0.73-1.32,1.46-2.64,2.21-3.95C239.24,425.59,239.55,425.26,239.97,424.72z"/>
	<path class="st1" d="M218.07,268.01c-2.02,4.26-4.12,8.5-6.04,12.79c-1.26,2.82-2.32,5.73-3.39,8.62c-0.35,0.94-0.97,2.17-0.59,2.9
		c2.93,5.6,0.5,11.36,0.98,17.01c0.16,1.88,1.84,3.66,3.82,5.09c-0.26-3.45-0.71-6.89-0.7-10.34c0-1.94,1.11-3.88,1.08-5.81
		c-0.04-2.64-0.69-5.28-1.18-8.54c8.1-0.45,13.6-5.01,17.64-9.35c-1.57-2.84-2.63-5.32-4.22-7.48c-1.51-2.05-3.58-3.77-5.4-5.64
		C219.4,267.51,218.73,267.76,218.07,268.01z"/>
	<path class="st1" d="M210.77,282.15c-12.62,3-13.12,11.9-14.81,19.91c-0.42,1.99,1.13,4.27,1.46,6.45
		c0.27,1.77-0.22,3.63,0.13,5.38c1.12,5.55,2.31,11.1,3.85,16.56c0.39,1.39,2.21,2.46,3.37,3.67c0.53-0.19,1.06-0.39,1.58-0.58
		c-0.8-5.82-1.66-11.63-2.39-17.46c-0.73-5.76-2.04-11.65,3.81-16.22c0.36-0.28,0.46-1.21,0.23-1.62
		C204.88,292.75,207.34,287.83,210.77,282.15z"/>
	<path class="st1" d="M210.14,365.96c-6-5.8-12.03-11.63-18.37-17.75c-1,3.11-7.87,4.86-2.38,8.64c-0.74,1.41-2.03,2.68-1.72,3.44
		c2.83,7.1,7.41,13.11,14.57,17.27c0.7-2.33,0.89-4.69,2.1-6.51C205.51,369.25,207.72,368.01,210.14,365.96z"/>
	<path class="st1" d="M379.25,322.44c2.02,0.24,4.95-0.18,5.88,0.84c2.47,2.73,4.27,6,5.97,9.21c1.32,2.5,2.09,5.23,3.36,8.54
		c4.81-8,7.82-15.23,5.35-24.53c-1.81,2.13-3,3.53-4.76,5.61c0.54-1.97,0.89-3.22,1.23-4.43c-7.26-5.49-12.13-5.36-21.69,0.86
		c1.3,1.77,2.62,3.57,3.95,5.38C378.77,323.43,379.01,322.93,379.25,322.44z"/>
	<path class="st1" d="M291.23,321.53c1.73,0.29,2.98,0.51,4.46,0.76c0-0.73,0-1.42,0-2.11c0-2.17-0.55-4.67,3.45-4.38
		c0.38,0.03,1.12-0.37,1.16-0.63c0.89-7.13,9.72-6,13.58-10.36c3.46-3.91,7.07-3.23,11.41,0.16c2.09,1.63,4.24,3.32,6.68,4.42
		c1.48,0.67,3.56,0.27,5.37,0.35c-0.22-1.4-0.41-2.81-0.69-4.21c-0.1-0.49-0.42-0.94-0.07-1.68c1.01,1.23,2.06,2.44,3.01,3.7
		c0.92,1.21,1.74,2.47,3.95,3.76c0-1.37,0.43-2.89-0.08-4.1c-1.92-4.62-8.22-7.99-14.02-8.07c-3.73-0.05-7.44-0.51-11.17-0.72
		c-1.12-0.07-2.45-0.26-3.35,0.16C304.16,303.6,295.85,310.7,291.23,321.53z"/>
	<path class="st1" d="M369.65,354.97c-1.31-0.64-3.64-2.6-4.68-2.15c-2.85,1.23-2.58,3.51-1.46,6.27c1.14,2.82,0.71,6.13,0.88,8.13
		c4.52-0.49,8.68-1.58,12.65-1.19c4.06,0.4,7.94,2.24,11.97,3.47c1.31-7.3-3.61-15.18-10.83-16.93c-1.59-0.38-3.8,1.29-5.81,2.04
		c0.04,0.05-0.65-0.86-1.33-1.78C370.48,353.69,369.92,354.55,369.65,354.97z"/>
	<path class="st1" d="M315.04,333.17c-4.45-4.52-10.25-4.36-12.88,0.46c-1.65,3.02-2.18,6.54-2.17,10.33
		c3.38-2.21,6.45-5.14,10.23-6.44c3.64-1.25,8.19-2.12,10.95,0.59c6.5-2.32,12.58-4.5,19.36-6.92c-0.95-0.77-1.91-2.17-3.21-2.51
		C329.21,326.56,320.79,323.61,315.04,333.17z"/>
	<path class="st1" d="M352.42,344.88c3.79-4.86,3.01-12.76,11.91-13.4c0.21-5.47,0.76-10.58-5.12-10.92
		c-5.05,3.74-9.5,6.53-13.26,9.93c-5.75,5.21-5.23,7.73,1.66,11.9C348.95,343.2,350.41,343.85,352.42,344.88z"/>
	<path class="st1" d="M309.59,275.45c-4.46,1.81-10.68,0.81-12.53,6.88c-0.15,0.48-1.66,0.93-2.5,0.88
		c-4.35-0.25-6.46,2.33-8.39,5.1c-2.21,3.17-4.31,6.41-6.39,9.52c6.16,0.88,9.59-0.13,14.36-3.87c2.05-1.61,4.42-3.05,6.9-4.05
		c4.2-1.68,6.43-4.11,6.65-8.38c0.09-1.74,1.92-3.42,2.96-5.12C310.3,276.09,309.95,275.77,309.59,275.45z"/>
	<path class="st1" d="M348.61,274.95c-2.21,4.73-4.46,9.18-6.28,13.76c-0.43,1.09,0.61,2.64,2.02,3.76
		c-0.15-1.04-0.3-2.08-0.49-3.41c3.87-0.19,5.45,1.66,5.64,4.33c0.13,1.82,0.1,4.52-1.14,5.41c-5.43,3.92-2.03,9.43-3.74,13.94
		c-0.14,0.36,0.58,0.97,1.4,2.25c1.38-1.53,2.85-2.59,3.48-3.96c2.61-5.71,5.16-11.46,7.29-17.32c0.53-1.46-0.26-4.74-1.01-4.89
		c-3.05-0.6-2.18-2.09-1.83-3.68C355.08,280.01,353.87,277.75,348.61,274.95z"/>
	<path class="st1" d="M208.13,314.1c0.18,1.56,0.35,3.13,0.53,4.69c-0.32,0.02-0.63,0.03-0.95,0.05c0-4.83,0-9.67,0-14.5
		c-0.74-0.01-1.49-0.02-2.23-0.04c0,4.12-0.21,8.24,0.06,12.35c0.3,4.63,1.39,9.23,1.51,13.85c0.2,7.84,4.85,13.57,9.88,19.22
		c0.42-0.1,0.84-0.2,1.26-0.29c-1.53-10.42-2.89-20.86-4.74-31.24c-0.3-1.67-2.78-3.02-4.25-4.52
		C208.84,313.81,208.48,313.96,208.13,314.1z"/>
	<path class="st1" d="M254.08,335.57c-1.03-21.61,13.86-36.86,25.5-54.34c-8.72,4.28-15.01,9.43-20.19,15.72
		c-0.29,0.35-0.66,0.73-0.73,1.13C256.66,310.31,249.07,321.93,254.08,335.57z"/>
	<path class="st1" d="M368.29,302.11c-0.56,2.94-0.93,4.85-1.29,6.77c-1.2,6.36-3.39,12.73-1.2,19.14c0.4,1.16,3.46,1.59,5.29,2.36
		c0.21-0.33,0.42-0.66,0.63-0.98c-1.09-0.78-2.18-1.57-3.59-2.58c1.5-0.97,2.75-1.79,4.28-2.78c-2.35-2.21-2.04-3.65,0.47-6.26
		c4.01-4.17,6.81-9.44,5.52-15.43c-0.59-2.7-1.14-5.49-2.35-7.99c-0.7-1.45-2.68-2.4-4.09-3.58c-0.43,0.32-0.85,0.65-1.28,0.97
		c1.41,3.06,2.97,6.07,4.15,9.19c0.39,1.04-0.21,2.38-0.36,3.58c-1.21-0.34-2.46-0.59-3.61-1.05
		C369.72,302.99,368.68,302.32,368.29,302.11z"/>
	<path class="st1" d="M238.1,367.08c-3.28-6.36-6.32-11.81-8.89-17.42c-1.34-2.92-1.44-6.3-2.87-9.18
		c-2.4-4.83-5.41-9.43-8.46-13.98C218.58,352.28,218.58,352.28,238.1,367.08z"/>
	<path class="st1" d="M218.34,416.25c0.22,0.02-0.81-0.08-1.85-0.19c0.86,2.59,3.43,3.56,5.38,2c2.84-2.27,5.64-4.58,9.09-7.38
		c-0.18-1.43-0.5-4.09-0.93-7.59c-4.78-5.01-11.65-4.32-19.84-0.55C212.93,407.16,215.74,411.87,218.34,416.25z"/>
	<path class="st1" d="M209.13,425.81c-0.85,0.84-4.52,2.94,1.19,4.79c-0.09-6.75,7.77-6.23,12.01-10.36
		c-5.35,0.22-7.96-0.97-7.79-5.79c0.1-2.69-2.82-4.77-6.45-4.64c-2.41,0.09-4.82,0.39-7.22,0.6c0,0.37,0.01,0.74,0.01,1.11
		c2.18,0,4.35,0,6.53,0c-0.46-0.36-0.91-0.72-1.37-1.09c-1.63,2.12-3.05,4.39-4.93,6.32c-4.16,4.28-4.72,6.61-0.33,9.39
		C202.58,427.26,206.29,425.99,209.13,425.81z"/>
	<path class="st1" d="M184.84,356.28c2.05-3.38,3.85-6.36,5.73-9.46c-8.53-10.2-13.66-14.07-21.59-9.71
		c2.28,1.13,4.4,2.18,6.53,3.24c-0.09,0.17-0.17,0.35-0.26,0.52c-1.1-0.17-2.2-0.33-3.45-0.52
		C170.25,350.37,180.52,351.93,184.84,356.28z"/>
	<path class="st1" d="M295.69,324.58c-0.68-0.21-2.43-1.32-3.99-1.14c-9.39,1.13-21.12,12.37-21.9,21.11
		c2.1-1.49,3.74-3.08,5.77-3.98c2.25-1,4.87-1.91,7.31-1.88c5.02,0.06,8.48-2.1,9.61-6.43
		C293.08,330.01,294.29,327.89,295.69,324.58z"/>
	<path class="st1" d="M254.02,371.29c0.26-3.96,0.5-7.75,0.74-11.55c0.57-0.14,1.15-0.28,1.72-0.42c1.59,1.24,3.17,2.47,4.76,3.71
		c0.25-0.09,0.5-0.18,0.75-0.27c-2.72-4.55-4.51-9.91-8.39-13.45c-4.88-4.46-7.18-9.48-8.69-15.24
		C240.51,338.96,245.95,360.96,254.02,371.29z"/>
	<path class="st1" d="M300.66,450.61c-0.6-0.17-0.07-0.02,0.45,0.13c1.44-4.23,5.87-2.79,9.01-3.64c3.11-0.84,3.51-2.31,1.97-4.48
		c-2.22-3.13-5.68-3.69-9.44-3.11c-4.42,0.69-8.8,1.57-14.3,2.56c3.98,5.51,8.11,11.24,12.24,16.97c0.76-0.31,1.53-0.61,2.29-0.92
		C302.11,455.47,301.32,452.83,300.66,450.61z"/>
	<path class="st1" d="M222.23,422.69c-13.62,6.19-14.52,9.42-4.58,16.58c-0.88,1.06-1.77,2.13-3.22,3.89
		c4.01-0.5,7.29-0.9,9.19-1.14C230.33,434.47,225.28,428.81,222.23,422.69z"/>
	<path class="st1" d="M248.98,298.58c-1.33,0.91-3.41,1.58-3.86,2.76c-2.42,6.32-5.18,12.65-6.36,19.19
		c-0.91,5.07,0.34,10.46,0.63,15.7c0.73,0.02,1.45,0.05,2.18,0.07c3.15-12.13,6.31-24.26,9.46-36.38
		C250.35,299.48,249.67,299.03,248.98,298.58z"/>
	<path class="st1" d="M286.04,303.75c1.56,0.13,3.69,0.31,5.82,0.5c0.65-1.65,1.29-3.3,2.22-5.68c-1.43,0-2.88-0.06-4.32,0.02
		c-0.96,0.06-1.9,0.38-2.87,0.5c-12.49,1.49-12.49,1.49-11.91,12.84c3.98-0.47,6.43,6.7,10.77,2.13
		C287.51,312.22,286.04,307.93,286.04,303.75z"/>
	<path class="st1" d="M281.34,271.73c-5.18-2.87-8.73-4.84-13.53-7.5c-5.57,4.66-11.74,9.82-17.91,14.98
		c0.3,0.29,0.61,0.57,0.91,0.86c5.56-1.55,11.08-3.24,16.72-4.55c1.79-0.41,4.09,0.78,5.79,0.27
		C275.92,275.01,278.2,273.38,281.34,271.73z"/>
	<path class="st1" d="M434.38,391.47c6.36-1.87,17.63-11.6,31.47-27.6C449.84,368.86,439.59,378.15,434.38,391.47z"/>
	<path class="st1" d="M193.66,373.58c-3.82-6.29-6.45-11.6-10.11-16.28c-2.09-2.67-5.86-4.29-9.66-6.92
		c0.18,1.8,0.27,2.67,0.38,3.74c-1.72-1.29-3.34-2.5-5.58-4.18c-0.87,3.92-0.48,6.97,2.55,9.05
		C178.2,363.74,185.4,368.23,193.66,373.58z"/>
	<path class="st1" d="M292.84,306.14c-1.89-0.38-3.45-0.7-4.72-0.96c0,4.52,0,8.86,0,13.19c-0.29,0.02-0.58,0.05-0.87,0.07
		c-0.25-0.82-0.5-1.64-0.88-2.9c-0.85,1.04-1.39,1.72-2,2.46c-2.72-1.39-5.46-2.79-8.92-4.56c0,6.01,0,11.22,0,16.5
		c4.41-2.41,8.44-4.44,12.21-6.79c1.14-0.71,1.91-2.26,2.24-3.55C291,315.29,291.82,310.91,292.84,306.14z"/>
	<path class="st1" d="M374.75,414.84c4.21,5.56,9.5,4.15,14.93,1.47c6.38-3.15,12.75-6.31,19.45-9.63
		c-1.41-1.54-2.36-2.58-3.85-4.21c-4.75,2.4-9.47,5.19-14.56,7.26C385.62,411.81,380.14,413.15,374.75,414.84z"/>
	<path class="st1" d="M366.28,282.54c-2.27-0.7-5.93-1.83-11.38-3.52c1.19,4.06,1.68,7.03,2.96,9.7c1.22,2.53,1.65,4.53-0.53,6.82
		c-1.19,1.26-1.72,3.02-2.55,4.55c0.36,0.38,0.72,0.76,1.08,1.14c4.56-2.62,9.13-5.23,13.27-7.61
		C368.35,290.58,367.43,286.99,366.28,282.54z"/>
	<path class="st1" d="M227.26,334.31c-0.47-4.62-0.29-9.38-1.54-13.82c-2.68-9.46-3.63-18.79-0.46-28.27
		c0.5-1.49,0.38-3.15,0.55-4.73c-5.82,1.7-5.09,5.83-4.95,9.75c0.35,9.54,0.5,19.08,1.13,28.6c0.2,3,1.65,5.94,2.53,8.91
		C225.44,334.6,226.35,334.46,227.26,334.31z"/>
	<path class="st1" d="M257.23,389.47c2.23,0,4.41-0.07,6.58,0.02c4.04,0.16,5.56-1.35,5.43-4.93c-0.13-3.59,0.87-7.38-3.41-9.81
		C253.76,378.61,251.01,379.56,257.23,389.47z"/>
	<path class="st1" d="M387.65,402.19c19.52-4.27,36.44-17.39,35.22-26.39c-3.51,8.63-12.41,11.37-20.12,15.6
		C397.3,394.4,392.66,398.55,387.65,402.19z"/>
	<path class="st1" d="M331.24,380.67c3.94-2.7,7.53-5.16,11.04-7.56c-2.42-5.79-6.36-8.89-11.19-8.59c-5.14,0.31-5.4,4.3-6.65,7.41
		c1.3,1.35,2.66,2.54,3.73,3.92C329.27,377.25,330.09,378.83,331.24,380.67z"/>
	<path class="st1" d="M293.98,280.62c-5.39-1.76-11.47,0.29-15.19,5.41c-3.49,4.81-7.48,9.33-11.48,14.27
		c1.94,1.09,3.11,1.75,5.07,2.85c4.32-5.38,8.27-10.81,12.84-15.79C287.7,284.66,291.22,282.7,293.98,280.62z"/>
	<path class="st1" d="M397.23,344.2c-2.31,3.18-4.53,6.53-7.1,9.65c-1.6,1.95-2.93,3.31-1.16,6.04c1.46,2.25,1.43,5.25,2.09,7.92
		c0.38,1.52,0.81,3.04,1.86,4.48C398.41,362.91,401.84,353.51,397.23,344.2z"/>
	<path class="st1" d="M350.76,363.69c-1.03-3.96-1.8-6.9-2.88-11.07c5.33,3.76,9.66,6.81,14,9.88c0.21-0.15,0.6-0.31,0.6-0.46
		c-0.17-4.87-7.06-14.07-11.16-14.96c-4.75-1.02-7.41,0.94-7.44,5.33c-0.01,2.51-0.27,5.03-0.46,8.07
		C344.96,361.16,347.22,362.15,350.76,363.69z"/>
	<path class="st1" d="M251.56,255.1c1.22,3.3,2.22,6,3.22,8.7c0.49-0.04,0.97-0.07,1.46-0.11c2.58-4.34-1.67-8.89-0.21-13.23
		c-7.17-0.91-12.08,2.05-13.31,8.86c-0.79,4.37-0.15,8.94,0.91,13.74C246.21,267.2,248.8,261.34,251.56,255.1z"/>
	<path class="st1" d="M292.48,314.54c6.45-6.11,11.12-11.82,11.71-19.87c0.45-6.23,6.16-9.08,12.66-10.96c0-1.62,0-3.47,0-6.91
		c-3.36,3.27-5.79,5.76-8.37,8.13c-2.4,2.19-4.83,4.38-7.47,6.33c-2.34,1.73-5,3.12-7.68,4.76c3.8,4.57,6.46,8.73,1.02,13.39
		C293.23,310.35,293.24,312.33,292.48,314.54z"/>
	<path class="st1" d="M283.18,466.15c-0.13-3.28-2.2-5.61-6.99-6.02c-1.43-0.12-2.7-1.74-4.07-2.69c-2.74,4.56-0.06,10.98-6.16,14.4
		c3.69,4.2,8.63,3.79,12.45-0.86C279.66,469.47,281.19,468.16,283.18,466.15z"/>
	<path class="st1" d="M192.57,375.14c-16.78-13-34.19-21.13-39.53-17.83C165.22,365.55,179.3,369.64,192.57,375.14z"/>
	<path class="st1" d="M231.89,312.44c2.48-3.07,5.21-6.44,7.93-9.82c0.28-0.35,0.67-0.71,0.76-1.11
		c2.29-11.23,13.4-15.6,21.68-22.16c0.72-0.57,1.56-1.01,2.55-1.64C249.86,277.32,230.93,300.99,231.89,312.44z"/>
	<path class="st1" d="M306.02,436.8c4.48,1.98,7.73,3.79,8.53,8.01c0.11,0.57,1.4,1.44,2.01,1.36c3.44-0.44,6.94-0.89,10.21-1.86
		c1.07-0.32,1.54-2.23,2.29-3.42c-1.23-0.44-2.51-0.79-3.69-1.33c-1.78-0.81-3.99-1.39-5.11-2.69c-2.19-2.54-4.12-3.78-7.69-1.9
		C310.67,436,308.22,436.22,306.02,436.8z"/>
	<path class="st1" d="M219.4,289.41c-2.7,0.75-4.06,1.13-4.88,1.36c-0.24,5.76-0.74,11.31-0.64,16.86
		c0.12,6.61,2.05,12.87,5.52,18.34C219.4,314.12,219.4,302.04,219.4,289.41z"/>
	<path class="st1" d="M240.42,418.1c-0.77,5.11,5.25,3.78,8.03,6.21c-4.82-0.88-7.84,1.16-10.35,5.06
		c11.4,0.04,17.81-7.09,25.88-11.97c-0.83-1.17-1.49-2.1-1.89-2.68c-3.66,1.59-6.94,3.78-10.55,4.37
		C248.12,419.65,244.36,418.52,240.42,418.1z"/>
	<path class="st1" d="M284.4,340.93c0.12,1.92,0.22,3.48,0.32,5.01c3.1,0.3,5.98,0.93,8.75,0.69c1.47-0.13,3.73-1.63,3.97-2.79
		c0.94-4.58,1.23-9.26,1.76-13.9c-0.68-0.26-1.36-0.52-2.04-0.78c-1.14,1.2-2.77,2.23-3.31,3.61
		C292.24,336.83,289.8,339.94,284.4,340.93z"/>
	<path class="st1" d="M228.76,315.6c2.04-8.39,4.14-16.46,10.5-23.32c1.2-1.29-0.2-4.49-0.48-7.65c-3.36,3.22-6.8,5.46-8.55,8.47
		c-1.89,3.24-2.83,7.19-3.03,10.87C227,307.82,228.18,311.73,228.76,315.6z"/>
	<path class="st1" d="M387.37,353.88c7.35-4.95,8.14-8.04,4.61-14.85c-1.35-2.6-1.76-5.58-2.94-8.27c-0.97-2.21-2.46-4.24-4.2-7.15
		C385.75,334.41,386.56,344.06,387.37,353.88z"/>
	<path class="st1" d="M394.35,419.7c-4.13,0.27-8.26,0.55-11.01,0.73c-3.03,5.29-5.67,9.89-8.02,13.99
		C385.35,432.55,393.08,426.78,394.35,419.7z"/>
	<path class="st1" d="M368.67,405.57c-4.52,2.21-7.5,3.81-10.62,5.14c-3.06,1.31-5.32,2.7-5.72,6.25c-0.36,3.2-2.08,6.27-3.36,9.84
		c0.61,0.36,1.75,1.04,2.84,1.69C357.33,420.99,362.67,413.73,368.67,405.57z"/>
	<path class="st1" d="M239.43,414.24c4.77,4.16,9.74,5.03,15.53,2.71c4.49-1.79,5.09-4.75,3.66-8.91
		C251.09,406.87,246.13,412.39,239.43,414.24z"/>
	<path class="st1" d="M256.9,246.98c0.53,4.69,1.06,9.39,1.6,14.21c1.32-0.26,2.2-0.44,3.66-0.74c-0.3,2.22-0.56,4.15-0.84,6.24
		c4.66-0.63,6.01-3.56,6.27-6.82c0.51-6.53-4.68-9.87-9.44-13.37C257.74,246.65,257.32,246.82,256.9,246.98z"/>
	<path class="st1" d="M268.6,351.07c13.03,3.93,15.93,0.34,13.8-10.9C275.97,340.33,269.69,345.19,268.6,351.07z"/>
	<path class="st1" d="M356.13,423.33c-0.92,16.06-12.21,21.25-27.72,21.84c2.78,0.58,5.55,1.28,8.36,1.69
		c1.87,0.28,3.99,0.62,5.71,0.14C351.86,444.38,358.96,432.79,356.13,423.33z"/>
	<path class="st1" d="M249.7,408.16c-2.92-1.54-5.36-2.91-7.89-4.15c-2.71-1.33-8.58-0.17-9.84,1.85c-1.18,1.9,1.3,5.7,4.66,6.87
		c0.89,0.31,2.17,0.37,3,0.03C242.97,411.38,246.19,409.79,249.7,408.16z"/>
	<path class="st1" d="M259.83,355.04c-0.68-3.41-1.07-6.59-1.96-9.65c-2.73-9.39-0.76-18.12,3.86-26.67
		c1.11-2.05,0.93-4.63,1.51-6.93c0.31-1.2,0.96-2.34,1.5-3.49c0.52-1.09,1.11-2.16,1.3-3.37
		C253.1,318.22,253.17,347.17,259.83,355.04z"/>
	<path class="st1" d="M250.29,260.71c-3.04,9.26-6.08,18.51-9.12,27.77c0.49,0.18,0.97,0.36,1.46,0.54
		c1.36-2.31,2.91-4.54,4.04-6.93c2.03-4.29,3.51-8.81,5.78-12.99C254.21,265.89,253.43,263.4,250.29,260.71z"/>
	<path class="st1" d="M412.17,397.34c-7.03,2.15-13.37,4.32-19.88,6.01c-5.72,1.48-10.02,4.44-13.13,9.34
		c4.53-1.81,9.06-3.62,13.6-5.41c5.51-2.18,11.1-4.21,16.49-6.6C410.61,400.07,411.34,398.33,412.17,397.34z"/>
	<path class="st1" d="M344.83,371.86c1.32-2.29,2.62-4.56,4.21-7.32c-6.92-2.51-12.37-7.7-20.83-5.92
		C337.2,359.55,338.68,367.62,344.83,371.86z"/>
	<path class="st1" d="M414.8,362.39c-5.27,4.13-12.05,9.32-18.61,14.72c-0.99,0.82-0.94,2.64-0.88,4.16
		C404.09,375.71,412.57,370.14,414.8,362.39z"/>
	<path class="st1" d="M366.6,305.31c-9.52-2.36-13.86-0.27-15.83,6.41c-0.33,1.12-1.49,2.05-2.31,3.04c-0.98,1.18-2,2.33-2.21,4.1
		c1.42-1.19,2.84-2.39,4.71-3.96c0.62,1.55,1.07,2.66,1.52,3.77C352.92,311.24,358.46,307.64,366.6,305.31z"/>
	<path class="st1" d="M243.48,299.98c0.59-0.49,1.11-1.28,1.78-1.41c9.27-1.78,11.37-8.92,15.29-16.28
		c-3.28,2.34-5.74,3.82-7.82,5.65c-2.1,1.85-3.49,4.41-5.79,5.97c-2.5,1.69-4.56,3.09-3.33,6.17L243.48,299.98z"/>
	<path class="st1" d="M277.04,474.4c5.14,4.84,5.39,4.79,10.29,1.05c2.23-1.7,4.23-3.94,1.34-5.5c-1.98-1.06-5.66-0.27-8.27,0.52
		C278.95,470.91,278.15,473.03,277.04,474.4z"/>
	<path class="st1" d="M395.57,384.64c11.28-2.35,17.94-8.73,21.55-16.38c-4.88,3.32-10.59,7.07-16.09,11.04
		C398.96,380.81,397.38,382.85,395.57,384.64z"/>
	<path class="st1" d="M252.51,345.55c-0.58-8.95-1.12-17.16-1.62-24.87C247.48,328.5,245.61,340.85,252.51,345.55z"/>
	<path class="st1" d="M366.14,377.67c0,8.91,0,17.83,0,25.66c5.29-4.76,6.79-17.91,1.83-25.72
		C367.36,377.63,366.75,377.65,366.14,377.67z"/>
	<path class="st1" d="M187.16,333.28c0-3.03,0-6.05,0-9.7c-5.35,1.51-8.33-0.34-8.97-6.4C176.67,324.45,181.48,331.98,187.16,333.28
		z"/>
	<path class="st1" d="M412.22,380.41c10.99-8.83,12.48-11.75,10.96-22.39C419.37,365.8,415.76,373.17,412.22,380.41z"/>
	<path class="st1" d="M412.74,330.76c-3.37,3.17-6.91,6.61-10.58,9.92c-2.72,2.45-3.48,5.07-1.96,7.61
		c3.45-2.97,7.59-5.65,10.32-9.19C412.35,336.74,412.18,333.16,412.74,330.76z"/>
	<path class="st1" d="M411.09,330.77c-2.44-1.29-3.53-1.87-4.78-2.53c-0.16,0.2-0.3,0.4-0.47,0.58c-1.36,1.41-2.46,3.18-4.14,4.13
		c-3.38,1.9-4.91,5.52-3.1,9.47C402.67,338.62,406.62,334.94,411.09,330.77z"/>
	<path class="st1" d="M380.65,308.26c1.74-1.15,3.38-2.3,5.09-3.35c1.59-0.98,3.26-1.85,5.08-2.88c-2.83-4.15-7.12-3.39-11.3-3.39
		C379.9,301.88,380.25,304.86,380.65,308.26z"/>
	<path class="st1" d="M269.08,281.65c-6.47-0.79-6.9-2.02-9.73,11.96C266.78,289.15,269.88,285.43,269.08,281.65z"/>
	<path class="st1" d="M364.78,396.13c-1.95,6.34-10.77,8.14-12.61,15.18C361.19,408.6,365.48,403.39,364.78,396.13z"/>
	<path class="st1" d="M406.22,383.32c-3.21,1.29-7.1,1.96-9.45,4.03c-2.21,1.94-2.79,5.35-4.09,8.11c0.34,0.25,0.68,0.5,1.01,0.75
		c4.55-3.97,9.11-7.94,13.66-11.91C406.99,383.97,406.61,383.64,406.22,383.32z"/>
	<path class="st1" d="M166.58,356.69c-2.77-2.6-5.25-5.54-8.43-7.66c-1.39-0.93-4.21-0.16-7.39-0.16
		c3.25,6.81,10.84,5.39,15.03,8.89C166.06,357.42,166.32,357.05,166.58,356.69z"/>
	<path class="st1" d="M368.54,295.48c-5.26,2.93-10.06,5.62-14.87,8.3c4.37-2.38,10.34,0.56,14.32-3.36
		c0.32-0.31,3.63,1.79,6.25,2.36C372.4,300.43,370.56,298.08,368.54,295.48z"/>
	<path class="st1" d="M212.89,347.69c-2.53-3.97-4.98-7.98-7.67-11.86c-0.59-0.85-2.02-1.23-3.21-1.9
		C199.71,342.38,207.43,344.41,212.89,347.69z"/>
	<path class="st1" d="M372.02,320.7c0.79,1.2,1.59,2.41,2.54,3.86c-1.17,0.78-2.25,1.5-3.17,2.1c3.36,3.87,6.73,7.74,10.1,11.62
		c0.36-0.19,0.72-0.38,1.07-0.57c-2.98-5.95-5.96-11.9-8.94-17.85C373.1,320.14,372.56,320.42,372.02,320.7z"/>
	<path class="st1" d="M228.73,276.1c5.78,4.35,8.36-1.71,12.68-0.98c-0.44-3.16-0.79-5.69-1.31-9.45c-1.78,1.84-4.06,3.17-3.92,4.23
		C236.82,274.51,234.45,276.21,228.73,276.1z"/>
	<path class="st1" d="M385.96,355.48c-0.54-6.19-0.98-11.24-1.41-16.28c-0.44,0.03-0.87,0.06-1.31,0.1
		C384.42,344.37,375.99,350.01,385.96,355.48z"/>
	<path class="st1" d="M342.52,331.42c4.8-3.46,8.49-7.39,7.94-13.42C345.2,321.06,340.97,328.21,342.52,331.42z"/>
	<path class="st1" d="M243.61,300.08c-3.67,4.73-7.33,9.45-11.73,15.13c10.95-2.25,10.11-9.34,11.59-15.23
		C243.48,299.98,243.61,300.08,243.61,300.08z"/>
	<path class="st1" d="M304.62,261.99c2.09,2.85,4.18,5.7,6.62,9.03c0.59-3.93,7.76-4.04,6.31-10.19c-2.95,1.73-5.19,3.04-7.6,4.45
		c-1.75-1.01-3.6-2.07-5.44-3.14C304.5,262.12,304.62,261.99,304.62,261.99z"/>
	<path class="st1" d="M364.27,310.02c-1.96,1.48-4.21,2.75-5.77,4.51c-0.82,0.93-0.86,2.83-0.43,4.06c0.26,0.74,2.52,1.72,3.12,1.42
		c1.19-0.6,2.2-1.93,2.64-3.14c0.73-2.04,0.95-4.22,1.39-6.34C364.91,310.36,364.59,310.19,364.27,310.02z"/>
	<path class="st1" d="M226.05,284.25c3.28,1.29,5.24,2.07,7.66,3.02c-0.64-6.66,4.63-9,10.1-11.18c-0.29-0.38-0.59-0.77-0.88-1.15
		C237.6,277.87,232.28,280.8,226.05,284.25z"/>
	<path class="st1" d="M333.9,285.27c2.51,1.57,4.2,2.62,6.64,4.15c1.66-3.46,3.16-6.58,4.65-9.7c-0.31-0.18-0.61-0.37-0.92-0.55
		C341.08,281.05,337.89,282.93,333.9,285.27z"/>
	<path class="st1" d="M176.32,330.84c-0.33,0.92-0.64,1.81-0.64,1.81c4.73,3.24,8.99,6.16,13.42,9.19
		c-0.44-3.63-0.21-7.31-6.43-7.64C180.59,334.08,178.64,332.13,176.32,330.84z"/>
	<path class="st1" d="M327.44,274.28c-5,0-10,0-14.9,0c-0.43,1.83-0.71,3.06-0.87,3.74c5.29-0.76,10.64-1.53,15.99-2.3
		C327.59,275.24,327.52,274.76,327.44,274.28z"/>
	<path class="st1" d="M251.69,276.78c3.12-4.1,6.24-8.2,9.36-12.31c-0.51-0.3-1.02-0.6-1.54-0.9c-6.29,2.39-5.89,8.43-9,12.56
		C250.91,276.35,251.3,276.56,251.69,276.78z"/>
	<path class="st1" d="M355.85,274.35c-0.36,0.94-0.79,2.1-1.32,3.5c5.05,1.24,9.86,2.41,14.67,3.59c0.04-0.27,0.09-0.54,0.13-0.81
		C364.91,278.57,360.48,276.51,355.85,274.35z"/>
	<path class="st1" d="M276.43,276.82c-2.47,0.64-4.7,1.22-7.1,1.84c0.89,1.89,1.53,3.26,2.29,4.87
		C274.78,282.39,277.91,281.37,276.43,276.82z"/>
	<path class="st1" d="M420.74,374.62c-4.03,3.81-8.06,7.62-12.58,11.91C415.91,384.98,418.23,379.72,420.74,374.62z"/>
	<path class="st1" d="M225.51,299.09c3.43-3.28,0.88-8.64,7.74-8.39c-0.11-0.36-0.22-0.72-0.33-1.08c-1.44-1.03-2.88-2.07-5.1-3.67
		C226.99,290.67,226.33,294.43,225.51,299.09z"/>
	<path class="st1" d="M259.4,473.64c-10.39-1.36-10.67-1.58-10.32-7.86c-0.42,0-0.84,0-1.26,0c0,2.43-1.12,5.95,0.24,7.07
		C250.81,475.12,254.89,476.31,259.4,473.64z"/>
	<path class="st1" d="M252.5,304.75c1.93-4.41,3.73-8.51,5.53-12.61C254.33,295.63,249.77,298.85,252.5,304.75z"/>
	<path class="st1" d="M225.17,301.5c-1.68,7.03,1.19,13.55,3.18,20.19C227.3,314.96,226.24,308.23,225.17,301.5z"/>
	<path class="st1" d="M360.99,443.02c-4.56,0.96-9.11,1.92-13.67,2.88c0.19,0.62,0.38,1.24,0.57,1.86
		c4.49-1.12,8.98-2.24,13.47-3.35C361.23,443.95,361.11,443.49,360.99,443.02z"/>
	<path class="st1" d="M248.81,314.57c-1.15,4.54-2.29,9.08-3.44,13.62c0.5,0.1,1.01,0.2,1.51,0.31c1.13-4.58,2.27-9.16,3.4-13.74
		C249.79,314.69,249.3,314.63,248.81,314.57z"/>
	<path class="st1" d="M385.14,334.74c-1.83-3.09-3.66-6.18-5.49-9.27c-0.47,0.2-0.94,0.4-1.41,0.6c1.67,3.13,3.34,6.27,5.01,9.4
		C383.88,335.23,384.51,334.98,385.14,334.74z"/>
	<path class="st1" d="M359.24,447.39c3.22-0.92,6.43-1.85,10.36-2.97c-5.37-3.29-7.37,1.45-10.72,1.95
		C359,446.71,359.12,447.05,359.24,447.39z"/>
</g>
</svg>
