<svg xmlns="http://www.w3.org/2000/svg" xmlns:xlink="http://www.w3.org/1999/xlink" viewBox="0 0 131.31 29.09"><defs><style>.cls-1{fill:#e6e6e6;}.cls-2{fill:url(#未命名的渐变_2);}.cls-3{fill:url(#未命名的渐变_2-2);}.cls-4{fill:url(#未命名的渐变_2-3);}</style><linearGradient id="未命名的渐变_2" x1="35.52" y1="731.99" x2="35.52" y2="717.46" gradientTransform="matrix(1, 0, 0, -1, 0, 732)" gradientUnits="userSpaceOnUse"><stop offset="0" stop-color="#d10cc8"/><stop offset="0.26" stop-color="#e01d8c"/><stop offset="0.5" stop-color="#ed2b5b"/><stop offset="0.71" stop-color="#f63637"/><stop offset="0.89" stop-color="#fb3c22"/><stop offset="1" stop-color="#fd3e1a"/></linearGradient><linearGradient id="未命名的渐变_2-2" x1="1708.51" y1="214.16" x2="1708.51" y2="199.63" gradientTransform="matrix(-1, 0, 0, 1, 1731.97, -185.09)" xlink:href="#未命名的渐变_2"/><linearGradient id="未命名的渐变_2-3" x1="58.55" y1="22.75" x2="131.31" y2="22.75" gradientTransform="matrix(1, 0, 0, 1, 0, 0)" xlink:href="#未命名的渐变_2"/></defs><g id="图层_2" data-name="图层 2"><g id="图层_1-2" data-name="图层 1"><path class="cls-1" d="M35.45,28.7l6-28.27c-1.63.11-3,1.24-4.16,2.26A18.52,18.52,0,0,0,34.1,6.57c-1,1.56-1.87,3.24-2.79,4.85-.3.54-.6,1.07-.91,1.59-.15.27-.31.53-.47.79a3.71,3.71,0,0,0-.44.74L33,0H59L57.06,9A16.85,16.85,0,0,0,54.78,2.7,5.64,5.64,0,0,0,50.29.42l-6,28.27h4.2l-.07.38H31.16l.08-.38Z"/><path class="cls-1" d="M23.53.39,17.48,28.67c1.63-.12,3-1.24,4.16-2.26a18.57,18.57,0,0,0,3.23-3.89c1-1.56,1.87-3.24,2.79-4.85l.91-1.59.47-.79a3.46,3.46,0,0,0,.44-.73L26,29.09H0l1.91-9a16.85,16.85,0,0,0,2.28,6.29,5.65,5.65,0,0,0,4.49,2.28L14.73.4H10.52L10.6,0H27.81L27.73.4Z"/><path class="cls-2" d="M29.49,14.54a3.94,3.94,0,0,1,.44-.73L30.4,13c.31-.53.61-1.06.91-1.59.92-1.62,1.76-3.3,2.79-4.86a18.78,18.78,0,0,1,3.23-3.88A7.63,7.63,0,0,1,41.47.43L41.56,0H33Z"/><path class="cls-3" d="M29.48,14.54a3.29,3.29,0,0,1-.44.74l-.47.79-.91,1.58c-.92,1.63-1.76,3.31-2.79,4.86a18.52,18.52,0,0,1-3.23,3.88c-1.17,1-2.52,2.14-4.14,2.26l-.08.42H26Z"/><path class="cls-4" d="M58.55,16.54h6v1.77h-2V28.93H60.59V18.31h-2Zm6.87,0h1.94V28.93H65.42ZM70.51,20v9H68.76V16.54H71.2l2,7.42V16.54h1.73V28.93h-2ZM79.26,22H82V26c0,2-1,3.11-2.9,3.11s-2.9-1.13-2.9-3.11V19.52c0-2,1-3.12,2.9-3.12S82,17.53,82,19.52v1.2H80.14V19.39c0-.88-.39-1.22-1-1.22s-1,.34-1,1.22v6.69c0,.89.39,1.21,1,1.21s1-.32,1-1.21V23.8h-.88Zm5.68,5v1.87H83.06V27.06Zm5.54-1.72,1.33-8.8h2.71V28.93H92.67V20.05l-1.34,8.88H89.49L88,20.17v8.76h-1.7V16.54h2.71Zm7.31-8.8V26.1c0,.89.39,1.2,1,1.2s1-.31,1-1.2V16.54h1.84V26c0,2-1,3.11-2.9,3.11S95.84,28,95.84,26V16.54Zm7.81-.14c1.89,0,2.86,1.13,2.86,3.12v.39h-1.84v-.52c0-.88-.35-1.22-1-1.22s-1,.34-1,1.22c0,2.55,3.8,3,3.8,6.57,0,2-1,3.11-2.9,3.11s-2.9-1.13-2.9-3.11V25.2h1.84v.88c0,.89.39,1.21,1,1.21s1-.32,1-1.21c0-2.55-3.8-3-3.8-6.56C102.73,17.53,103.7,16.4,105.6,16.4Zm5.94,5.36h2.68v1.77h-2.68v3.63h3.37v1.77H109.6V16.54h5.31v1.77h-3.37ZM118,16.54V26.1c0,.89.39,1.2,1,1.2s1-.31,1-1.2V16.54h1.84V26c0,2-1,3.11-2.91,3.11S116,28,116,26V16.54Zm9.31,8.8,1.33-8.8h2.7V28.93h-1.84V20.05l-1.34,8.88h-1.84l-1.45-8.76v8.76h-1.7V16.54h2.71Z"/></g></g></svg>