{"accessors":[{"bufferView":0,"componentType":5121,"count":36,"max":[23],"min":[0],"type":"SCALAR"},{"bufferView":1,"componentType":5126,"count":24,"max":[1.0,1.0,1.0],"min":[-1.0,-1.0,-1.0],"type":"VEC3"},{"bufferView":2,"componentType":5126,"count":24,"max":[1.0,1.0,1.0],"min":[-1.0,-1.0,-1.0],"type":"VEC3"},{"bufferView":3,"componentType":5126,"count":24,"max":[0.875,1.0],"min":[0.125,0.0],"type":"VEC2"},{"bufferView":4,"componentType":5121,"count":36,"max":[23],"min":[0],"type":"SCALAR"},{"bufferView":5,"componentType":5126,"count":24,"max":[1.0,1.0,1.0],"min":[-1.0,-1.0,-1.0],"type":"VEC3"},{"bufferView":6,"componentType":5126,"count":24,"max":[1.0,1.0,1.0],"min":[-1.0,-1.0,-1.0],"type":"VEC3"},{"bufferView":7,"componentType":5126,"count":24,"max":[0.875,1.0],"min":[0.125,0.0],"type":"VEC2"},{"bufferView":8,"componentType":5121,"count":36,"max":[23],"min":[0],"type":"SCALAR"},{"bufferView":9,"componentType":5126,"count":24,"max":[1.0,1.0,1.0],"min":[-1.0,-1.0,-1.0],"type":"VEC3"},{"bufferView":10,"componentType":5126,"count":24,"max":[1.0,1.0,1.0],"min":[-1.0,-1.0,-1.0],"type":"VEC3"},{"bufferView":11,"componentType":5126,"count":24,"max":[0.875,1.0],"min":[0.125,0.0],"type":"VEC2"},{"bufferView":12,"componentType":5121,"count":2,"max":[1],"min":[0],"type":"SCALAR"},{"bufferView":13,"componentType":5126,"count":2,"max":[0.0,0.0,1.0],"min":[0.0,0.0,-1.0],"type":"VEC3"},{"bufferView":14,"componentType":5121,"count":2,"max":[1],"min":[0],"type":"SCALAR"},{"bufferView":15,"componentType":5126,"count":2,"max":[0.0,0.0,1.0],"min":[0.0,0.0,-1.0],"type":"VEC3"},{"bufferView":16,"componentType":5121,"count":2,"max":[1],"min":[0],"type":"SCALAR"},{"bufferView":17,"componentType":5126,"count":2,"max":[0.0,0.0,1.0],"min":[0.0,0.0,-1.0],"type":"VEC3"}],"asset":{"generator":"Soft8Soft Verge3D for Blender add-on","version":"2.0"},"bufferViews":[{"buffer":0,"byteLength":36,"byteOffset":0,"target":34963},{"buffer":0,"byteLength":288,"byteOffset":36,"target":34962},{"buffer":0,"byteLength":288,"byteOffset":324,"target":34962},{"buffer":0,"byteLength":192,"byteOffset":612,"target":34962},{"buffer":0,"byteLength":36,"byteOffset":804,"target":34963},{"buffer":0,"byteLength":288,"byteOffset":840,"target":34962},{"buffer":0,"byteLength":288,"byteOffset":1128,"target":34962},{"buffer":0,"byteLength":192,"byteOffset":1416,"target":34962},{"buffer":0,"byteLength":36,"byteOffset":1608,"target":34963},{"buffer":0,"byteLength":288,"byteOffset":1644,"target":34962},{"buffer":0,"byteLength":288,"byteOffset":1932,"target":34962},{"buffer":0,"byteLength":192,"byteOffset":2220,"target":34962},{"buffer":0,"byteLength":2,"byteOffset":2412,"target":34963},{"buffer":0,"byteLength":24,"byteOffset":2416,"target":34962},{"buffer":0,"byteLength":2,"byteOffset":2440,"target":34963},{"buffer":0,"byteLength":24,"byteOffset":2444,"target":34962},{"buffer":0,"byteLength":2,"byteOffset":2468,"target":34963},{"buffer":0,"byteLength":24,"byteOffset":2472,"target":34962}],"buffers":[{"byteLength":2496,"uri":"axis_control.bin"}],"cameras":[{"extensions":{"S8S_v3d_camera_data":{"controls":"ORBIT","enablePan":true,"moveSpeed":1,"orbitMaxDistance":10000,"orbitMaxPolarAngle":3.141592653589793,"orbitMinDistance":0,"orbitMinPolarAngle":0,"orbitTarget":[2.108908176422119,5.193003177642822,-0.5581915974617004],"rotateSpeed":1,"viewportFitInitialAspect":1,"viewportFitType":"VERTICAL"}},"name":"__DEFAULT__","perspective":{"aspectRatio":1,"yfov":0.7853981633974483,"zfar":999.2999877929688,"znear":0.009999999776482582},"type":"perspective"}],"extensionsUsed":["S8S_v3d_material_data","S8S_v3d_camera_data","S8S_v3d_mesh_data","S8S_v3d_node_data","S8S_v3d_scene_data"],"materials":[{"alphaMode":"BLEND","extensions":{"S8S_v3d_material_data":{"blendMode":{"blendEquation":32774,"dstRGB":771,"srcRGB":1},"nodeGraph":{"edges":[{"fromNode":1,"fromOutput":0,"toInput":0,"toNode":0}],"nodes":[{"inputs":[[0,0,0,0],[0,0,0,0],[0.0,0.0,0.0]],"is_active_output":true,"name":"Material Output","outputs":[],"type":"OUTPUT_MATERIAL_BL"},{"inputs":[[1.0,1.0,1.0,1.0]],"is_active_output":false,"name":"Transparent BSDF","outputs":[[0,0,0,0]],"type":"BSDF_TRANSPARENT_BL"}]}}},"name":"transparent"},{"extensions":{"S8S_v3d_material_data":{"nodeGraph":{"edges":[{"fromNode":1,"fromOutput":0,"toInput":0,"toNode":0},{"fromNode":4,"fromOutput":0,"toInput":0,"toNode":7},{"fromNode":7,"fromOutput":0,"toInput":0,"toNode":6},{"fromNode":6,"fromOutput":0,"toInput":4,"toNode":5},{"fromNode":3,"fromOutput":0,"toInput":0,"toNode":1},{"fromNode":2,"fromOutput":0,"toInput":0,"toNode":3},{"fromNode":5,"fromOutput":0,"toInput":1,"toNode":3}],"nodes":[{"inputs":[[0,0,0,0],[0,0,0,0]],"is_active_output":true,"name":"World Output","outputs":[],"type":"OUTPUT_WORLD_BL"},{"inputs":[[0.0,0.0,0.0,1.0],1.0],"is_active_output":false,"name":"Background","outputs":[[0,0,0,0]],"type":"BACKGROUND_BL"},{"inputs":[],"is_active_output":false,"name":"Light Path","outputs":[0.0,0.0,0.0,0.0,0.0,0.0,0.0,0.0,0.0,0.0,0.0,0.0,0.0],"type":"LIGHT_PATH_BL"},{"blendType":"MIX","inputs":[0.5,[0.5,0.5,0.5,1.0],[0.5,0.5,0.5,1.0]],"is_active_output":false,"name":"Mix","outputs":[[0.0,0.0,0.0,0.0]],"type":"MIX_RGB_BL","useClamp":false},{"inputs":[],"is_active_output":false,"name":"Texture Coordinate","object":-1,"outputs":[[0.0,0.0,0.0],[0.0,0.0,0.0],[0.0,0.0,0.0],[0.0,0.0,0.0],[0.0,0.0,0.0],[0.0,0.0,0.0],[0.0,0.0,0.0]],"type":"TEX_COORD_BL"},{"inputs":[0.5,1.0,2.0,1.0,[0.800000011920929,0.800000011920929,0.800000011920929,1.0]],"is_active_output":false,"name":"Hue Saturation Value","outputs":[[0.0,0.0,0.0,0.0]],"type":"HUE_SAT_BL"},{"inputs":[[0.0,0.0,0.0]],"is_active_output":false,"name":"Environment Texture","outputs":[[0.0,0.0,0.0,0.0]],"projection":"EQUIRECTANGULAR","type":"TEX_ENVIRONMENT_NONE_BL"},{"inputs":[[0.0,0.0,0.0],[0.0,0.16999998688697815,0.6499999761581421],[0.0,0.0,0.0],[1.0,1.0,1.0]],"is_active_output":false,"name":"Mapping","outputs":[[0.0,0.0,0.0]],"type":"MAPPING_BL","vectorType":"POINT"}]}}},"name":"Verge3D_Environment_World"}],"meshes":[{"extensions":{"S8S_v3d_mesh_data":{"colorLayers":{},"uvLayers":{"UVMap":"TEXCOORD_0"}}},"name":"Cube","primitives":[{"attributes":{"NORMAL":2,"POSITION":1,"TEXCOORD_0":3},"indices":0,"material":0,"mode":4}]},{"extensions":{"S8S_v3d_mesh_data":{"colorLayers":{},"uvLayers":{"UVMap":"TEXCOORD_0"}}},"name":"Cube.001","primitives":[{"attributes":{"NORMAL":6,"POSITION":5,"TEXCOORD_0":7},"indices":4,"material":0,"mode":4}]},{"extensions":{"S8S_v3d_mesh_data":{"colorLayers":{},"uvLayers":{"UVMap":"TEXCOORD_0"}}},"name":"Cube.002","primitives":[{"attributes":{"NORMAL":10,"POSITION":9,"TEXCOORD_0":11},"indices":8,"material":0,"mode":4}]},{"extensions":{"S8S_v3d_mesh_data":{"colorLayers":{},"lineColor":[0.0,1.0,0.17490717768669128],"lineWidth":1.0,"uvLayers":{}}},"name":"Plane","primitives":[{"attributes":{"POSITION":13},"indices":12,"mode":1}]},{"extensions":{"S8S_v3d_mesh_data":{"colorLayers":{},"lineColor":[0.0,0.09173985570669174,1.0],"lineWidth":1.0,"uvLayers":{}}},"name":"Plane.001","primitives":[{"attributes":{"POSITION":15},"indices":14,"mode":1}]},{"extensions":{"S8S_v3d_mesh_data":{"colorLayers":{},"lineColor":[1.0,0.0945805013179779,0.0],"lineWidth":1.0,"uvLayers":{}}},"name":"Plane.002","primitives":[{"attributes":{"POSITION":17},"indices":16,"mode":1}]}],"nodes":[{"children":[4],"extensions":{"S8S_v3d_node_data":{"frustumCulling":true,"groupNames":[],"hidden":false,"renderOrder":0}},"mesh":3,"name":"axis_y"},{"extensions":{"S8S_v3d_node_data":{"frustumCulling":true,"groupNames":[],"hidden":false,"renderOrder":0}},"mesh":0,"name":"axis_x_drag","rotation":[0.0,0.0,0.7071066498756409,0.70710688829422],"scale":[0.050000011920928955,1.0,0.050000011920928955]},{"children":[1],"name":"v3d_Proxy_Node_0_axis_x_drag","rotation":[0.0,-0.7071068286895752,-0.0,0.7071067094802856]},{"children":[2],"extensions":{"S8S_v3d_node_data":{"frustumCulling":true,"groupNames":[],"hidden":false,"renderOrder":0}},"mesh":5,"name":"axis_x","rotation":[0.0,0.7071068286895752,-0.0,0.7071067094802856]},{"extensions":{"S8S_v3d_node_data":{"frustumCulling":true,"groupNames":[],"hidden":false,"renderOrder":0}},"mesh":2,"name":"axis_y_drag","rotation":[0.7071068286895752,0.0,-0.0,0.7071067094802856],"scale":[0.050000011920928955,1.0,0.050000011920928955]},{"children":[3,0,8],"extensions":{"S8S_v3d_node_data":{"frustumCulling":true,"groupNames":[],"hidden":false,"renderOrder":0}},"name":"axis_control"},{"extensions":{"S8S_v3d_node_data":{"frustumCulling":true,"groupNames":[],"hidden":false,"renderOrder":0}},"mesh":1,"name":"axis_z_drag","scale":[0.050000011920928955,1.0,0.050000011920928955]},{"children":[6],"name":"v3d_Proxy_Node_0_axis_z_drag","rotation":[0.7071068286895752,0.0,-0.0,0.7071067094802856]},{"children":[7],"extensions":{"S8S_v3d_node_data":{"frustumCulling":true,"groupNames":[],"hidden":false,"renderOrder":0}},"mesh":4,"name":"axis_z","rotation":[-0.7071068286895752,0.0,-0.0,0.7071067094802856]},{"camera":0,"name":"__DEFAULT_CAMERA__","rotation":[-0.10698755830526352,-0.3375484347343445,-0.03864029049873352,0.9344097971916199],"scale":[1.0,0.9999999403953552,0.9999998211860657],"translation":[-14.157876968383789,11.098920822143555,19.01866340637207]}],"scene":0,"scenes":[{"extensions":{"S8S_v3d_scene_data":{"aaMethod":"AUTO","iblEnvironmentMode":"PMREM","physicallyCorrectLights":true,"pmremMaxTileSize":512,"worldMaterial":1}},"extras":{"animFrameRate":30,"coordSystem":"Z_UP_RIGHT"},"name":"Scene","nodes":[5,9]}]}
