{"accessors":[{"bufferView":0,"componentType":5121,"count":6,"max":[3],"min":[0],"type":"SCALAR"},{"bufferView":1,"componentType":5126,"count":4,"max":[1.0,0.0,1.0],"min":[-1.0,0.0,-1.0],"type":"VEC3"},{"bufferView":2,"componentType":5126,"count":4,"max":[0.0,1.0,-0.0],"min":[0.0,1.0,-0.0],"type":"VEC3"},{"bufferView":3,"componentType":5126,"count":4,"max":[1.0,1.0],"min":[0.0,0.0],"type":"VEC2"}],"asset":{"generator":"Soft8Soft Verge3D for Blender add-on","version":"2.0"},"bufferViews":[{"buffer":0,"byteLength":6,"byteOffset":0,"target":34963},{"buffer":0,"byteLength":48,"byteOffset":8,"target":34962},{"buffer":0,"byteLength":48,"byteOffset":56,"target":34962},{"buffer":0,"byteLength":32,"byteOffset":104,"target":34962}],"buffers":[{"byteLength":136,"uri":"Reticle.bin"}],"cameras":[{"extensions":{"S8S_v3d_camera_data":{"controls":"ORBIT","enablePan":true,"moveSpeed":1,"orbitMaxDistance":10000,"orbitMaxPolarAngle":3.141592653589793,"orbitMinDistance":0,"orbitMinPolarAngle":0,"orbitTarget":[2.108908176422119,5.193003177642822,-0.5581915974617004],"rotateSpeed":1,"viewportFitInitialAspect":1,"viewportFitType":"VERTICAL"}},"name":"__DEFAULT__","perspective":{"aspectRatio":1,"yfov":0.7853981633974483,"zfar":999.2999877929688,"znear":0.009999999776482582},"type":"perspective"}],"extensionsUsed":["S8S_v3d_material_data","S8S_v3d_camera_data","S8S_v3d_mesh_data","S8S_v3d_node_data","S8S_v3d_scene_data"],"materials":[{"alphaMode":"BLEND","extensions":{"S8S_v3d_material_data":{"blendMode":{"blendEquation":32774,"dstRGB":771,"srcRGB":1},"nodeGraph":{"edges":[{"fromNode":3,"fromOutput":0,"toInput":1,"toNode":5},{"fromNode":4,"fromOutput":0,"toInput":2,"toNode":5},{"fromNode":8,"fromOutput":0,"toInput":0,"toNode":1},{"fromNode":1,"fromOutput":0,"toInput":0,"toNode":4},{"fromNode":7,"fromOutput":0,"toInput":1,"toNode":2},{"fromNode":2,"fromOutput":0,"toInput":0,"toNode":5},{"fromNode":8,"fromOutput":0,"toInput":1,"toNode":0},{"fromNode":0,"fromOutput":0,"toInput":0,"toNode":2},{"fromNode":5,"fromOutput":0,"toInput":0,"toNode":6},{"fromNode":11,"fromOutput":2,"toInput":0,"toNode":10},{"fromNode":10,"fromOutput":1,"toInput":0,"toNode":9},{"fromNode":9,"fromOutput":0,"toInput":0,"toNode":8},{"fromNode":9,"fromOutput":0,"toInput":0,"toNode":7}],"nodes":[{"inputs":[1.0,[0.0,0.0,0.0,1.0]],"is_active_output":false,"name":"Invert","outputs":[[0.0,0.0,0.0,0.0]],"type":"INVERT_BL"},{"blendType":"MIX","inputs":[0.5,[1.0,1.0,1.0,1.0],[0.07034149020910263,0.37424516677856445,0.6691927909851074,1.0]],"is_active_output":false,"name":"Mix","outputs":[[0.0,0.0,0.0,0.0]],"type":"MIX_RGB_BL","useClamp":false},{"blendType":"MULTIPLY","inputs":[1.0,[0.5,0.5,0.5,1.0],[0.1727277636528015,0.1727277636528015,0.1727277636528015,1.0]],"is_active_output":false,"name":"Mix.002","outputs":[[0.0,0.0,0.0,0.0]],"type":"MIX_RGB_BL","useClamp":false},{"inputs":[[1.0,1.0,1.0,1.0]],"is_active_output":false,"name":"Transparent BSDF","outputs":[[0,0,0,0]],"type":"BSDF_TRANSPARENT_BL"},{"inputs":[[1.0,1.0,1.0,1.0],1.0],"is_active_output":false,"name":"Emission","outputs":[[0,0,0,0]],"type":"EMISSION_BL"},{"inputs":[0.5,[0,0,0,0],[0,0,0,0]],"is_active_output":false,"name":"Mix Shader","outputs":[[0,0,0,0]],"type":"MIX_SHADER_BL"},{"inputs":[[0,0,0,0],[0,0,0,0],[0.0,0.0,0.0]],"is_active_output":true,"name":"Material Output","outputs":[],"type":"OUTPUT_MATERIAL_BL"},{"inputs":[0.5,0.9200000166893005,0.0],"is_active_output":false,"name":"Math.001","operation":"LESS_THAN","outputs":[0.0],"type":"MATH_BL","useClamp":true},{"inputs":[0.5,0.6000000238418579,0.0],"is_active_output":false,"name":"Math","operation":"LESS_THAN","outputs":[0.0],"type":"MATH_BL","useClamp":false},{"inputs":[[0.0,0.0,0.0],[0.0,0.0,0.0],[0.0,0.0,0.0],[2.0,2.0,2.0]],"is_active_output":false,"name":"Mapping","outputs":[[0.0,0.0,0.0]],"type":"MAPPING_BL","vectorType":"POINT"},{"inputs":[[0.0,0.0,0.0],[0.5,0.5,0.0],[0.0,0.0,0.0],1.0],"is_active_output":false,"name":"Vector Math","operation":"DISTANCE","outputs":[[0.0,0.0,0.0],0.0],"type":"VECT_MATH_BL"},{"inputs":[],"is_active_output":false,"name":"Texture Coordinate","object":-1,"outputs":[[0.0,0.0,0.0],[0.0,0.0,0.0],[0.0,0.0,0.0],[0.0,0.0,0.0],[0.0,0.0,0.0],[0.0,0.0,0.0],[0.0,0.0,0.0]],"type":"TEX_COORD_BL"}]}}},"name":"Reticle"}],"meshes":[{"extensions":{"S8S_v3d_mesh_data":{"colorLayers":{},"uvLayers":{"UVMap":"TEXCOORD_0"}}},"name":"Plane","primitives":[{"attributes":{"NORMAL":2,"POSITION":1,"TEXCOORD_0":3},"indices":0,"material":0,"mode":4}]}],"nodes":[{"extensions":{"S8S_v3d_node_data":{"frustumCulling":true,"groupNames":[],"hidden":true,"renderOrder":0}},"mesh":0,"name":"Reticle","scale":[0.10000000149011612,1.0,0.10000000149011612]},{"camera":0,"name":"__DEFAULT_CAMERA__","rotation":[-0.10698755830526352,-0.3375484347343445,-0.03864029049873352,0.9344097971916199],"scale":[1.0,0.9999999403953552,0.9999998211860657],"translation":[-14.157876968383789,11.098920822143555,19.01866340637207]}],"scene":0,"scenes":[{"extensions":{"S8S_v3d_scene_data":{"aaMethod":"AUTO","iblEnvironmentMode":"PMREM","physicallyCorrectLights":true,"pmremMaxTileSize":512}},"extras":{"animFrameRate":30,"coordSystem":"Z_UP_RIGHT"},"name":"Scene","nodes":[0,1]}]}
